<svg width="109" height="23" viewBox="0 0 109 23" fill="none" xmlns="http://www.w3.org/2000/svg">
<g clip-path="url(#clip0_1_90)">
<path d="M0 22.5351V0.471191H4.856V22.5351H0ZM3.34087 4.34745V0.471191H17.0721V4.34745H3.34087ZM3.34087 13.1743V9.59957H15.4872V13.1743H3.34087ZM3.34087 22.5351V18.6211H17.1735V22.5351H3.34087Z" fill="#131313"/>
<path d="M20.9518 22.5351V0.471191H27.2595L37.3772 16.083H37.7512L37.4153 0.471191H42.1381V22.5351H36.439L25.7444 6.18821H25.4084L25.681 22.5351H20.9581H20.9518Z" fill="#131313"/>
<path d="M57.283 23C55.5714 23 54.0436 22.7613 52.6933 22.2838C51.343 21.8063 50.1892 21.0839 49.2383 20.1289C48.281 19.174 47.5583 17.9992 47.0639 16.6171C46.5694 15.2349 46.3221 13.6078 46.3221 11.7356C46.3221 9.86343 46.5694 8.16717 47.0639 6.72221C47.5583 5.27097 48.281 4.04589 49.2383 3.04699C50.1955 2.0418 51.3239 1.2879 52.6299 0.772744C53.9358 0.257584 55.3875 0.00628662 56.985 0.00628662C58.2466 0.00628662 59.394 0.163348 60.44 0.477469C61.486 0.791591 62.3989 1.25021 63.1723 1.86589C63.9457 2.48157 64.548 3.22289 64.9791 4.08987C65.4038 4.95685 65.632 5.93691 65.651 7.03005L61.1627 8.23628C61.1627 7.25622 60.9472 6.45207 60.5224 5.83011C60.0977 5.20814 59.5525 4.73696 58.9059 4.42912C58.2529 4.115 57.5556 3.95794 56.8139 3.95794C56.1863 3.95794 55.546 4.08987 54.893 4.36002C54.2401 4.63016 53.6442 5.05108 53.1053 5.62907C52.5665 6.20705 52.1417 6.97351 51.8374 7.92216C51.5331 8.8708 51.381 10.0456 51.381 11.4466C51.381 13.2748 51.6409 14.7449 52.1544 15.8569C52.6742 16.9689 53.3969 17.7919 54.3288 18.3133C55.2607 18.8347 56.2877 19.0986 57.4161 19.0986C58.6523 19.0986 59.6159 18.841 60.3006 18.3322C60.9852 17.817 61.4797 17.1699 61.784 16.3783C62.0883 15.5867 62.2594 14.7574 62.3102 13.8905L66.5259 14.5564C66.5005 15.7375 66.323 16.8495 65.987 17.8798C65.651 18.9101 65.1185 19.8211 64.4022 20.5876C63.6795 21.354 62.7349 21.9508 61.5494 22.378C60.3703 22.799 58.9439 23.0126 57.283 23.0126V23Z" fill="#131313"/>
<path d="M70.0379 22.5351V0.471191H74.8622V22.5351H70.0379ZM72.3328 4.5799V0.471191H86.6345V4.58619H72.3328V4.5799ZM72.3328 14.2737V10.3283H85.3223V14.2737H72.3328Z" fill="#FF9D00"/>
<path d="M95.9788 22.5351V15.6496L87.782 0.471191H93.5825L98.3371 11.3398H98.5083L103.263 0.471191H109L100.867 15.6181V22.5414H95.9725L95.9788 22.5351Z" fill="#FF9D00"/>
</g>
<defs>
<clipPath id="clip0_1_90">
<rect width="109" height="23" fill="white"/>
</clipPath>
</defs>
</svg>
