<svg width="432" height="451" viewBox="0 0 432 451" fill="none" xmlns="http://www.w3.org/2000/svg">
<path d="M237.244 104.908C237.244 104.908 168.555 97.6099 130.26 130.781C91.9646 163.951 68.5727 196.658 48.343 211.516C28.1151 226.374 21.8206 266.57 51.0409 294.041C80.2593 321.511 142.105 353.32 227.385 347.135C312.664 340.949 367.643 275.24 352.859 203.849C338.076 132.458 276.395 104.408 237.246 104.908H237.244Z" fill="#E3F0FC"/>
<path d="M79.6098 157.155C101.254 132.212 109.864 104.238 98.8404 94.6719C87.8169 85.1063 61.3346 97.5719 39.6903 122.515C18.0461 147.457 9.43628 175.432 20.4597 184.998C31.4832 194.563 57.9656 182.098 79.6098 157.155Z" fill="#E3F0FC"/>
<path d="M157.973 75.5003C157.499 75.5003 157.117 75.1165 157.117 74.6447V71.2597C157.117 70.786 157.501 70.4041 157.973 70.4041C158.445 70.4041 158.828 70.7879 158.828 71.2597V74.6447C158.828 75.1184 158.445 75.5003 157.973 75.5003Z" fill="black"/>
<path d="M157.973 65.7196C157.499 65.7196 157.117 65.3358 157.117 64.864V60.9866C157.117 60.0561 157.254 59.1387 157.525 58.2568C157.664 57.8037 158.145 57.551 158.594 57.6895C159.046 57.8281 159.3 58.3074 159.162 58.7586C158.941 59.4757 158.83 60.2264 158.83 60.9847V64.8621C158.83 65.3358 158.446 65.7178 157.975 65.7178L157.973 65.7196ZM162.251 54.4973C161.953 54.4973 161.663 54.3419 161.506 54.063C161.272 53.6511 161.416 53.1287 161.828 52.8966C163.219 52.1065 164.805 51.689 166.411 51.689H168.452C168.925 51.689 169.307 52.0728 169.307 52.5446C169.307 53.0164 168.924 53.4002 168.452 53.4002H166.411C165.099 53.4002 163.807 53.7409 162.672 54.3831C162.537 54.4599 162.393 54.4955 162.249 54.4955L162.251 54.4973ZM245.181 53.4021H238.787C238.313 53.4021 237.931 53.0183 237.931 52.5464C237.931 52.0746 238.315 51.6908 238.787 51.6908H245.181C245.654 51.6908 246.036 52.0746 246.036 52.5464C246.036 53.0183 245.652 53.4021 245.181 53.4021ZM232.393 53.4021H225.999C225.526 53.4021 225.144 53.0183 225.144 52.5464C225.144 52.0746 225.527 51.6908 225.999 51.6908H232.393C232.867 51.6908 233.249 52.0746 233.249 52.5464C233.249 53.0183 232.865 53.4021 232.393 53.4021ZM219.606 53.4021H213.212C212.738 53.4021 212.356 53.0183 212.356 52.5464C212.356 52.0746 212.74 51.6908 213.212 51.6908H219.606C220.079 51.6908 220.461 52.0746 220.461 52.5464C220.461 53.0183 220.077 53.4021 219.606 53.4021ZM206.818 53.4021H200.424C199.951 53.4021 199.569 53.0183 199.569 52.5464C199.569 52.0746 199.952 51.6908 200.424 51.6908H206.818C207.292 51.6908 207.674 52.0746 207.674 52.5464C207.674 53.0183 207.29 53.4021 206.818 53.4021ZM194.029 53.4021H187.635C187.161 53.4021 186.779 53.0183 186.779 52.5464C186.779 52.0746 187.163 51.6908 187.635 51.6908H194.029C194.502 51.6908 194.884 52.0746 194.884 52.5464C194.884 53.0183 194.5 53.4021 194.029 53.4021ZM181.241 53.4021H174.847C174.374 53.4021 173.992 53.0183 173.992 52.5464C173.992 52.0746 174.376 51.6908 174.847 51.6908H181.241C181.715 51.6908 182.097 52.0746 182.097 52.5464C182.097 53.0183 181.713 53.4021 181.241 53.4021Z" fill="black"/>
<path d="M254.969 53.4022H251.584C251.11 53.4022 250.728 53.0183 250.728 52.5465C250.728 52.0747 251.112 51.6909 251.584 51.6909H254.969C255.442 51.6909 255.824 52.0747 255.824 52.5465C255.824 53.0183 255.44 53.4022 254.969 53.4022Z" fill="black"/>
<path d="M96.7407 280.748H89.9707C89.497 280.748 89.115 280.364 89.115 279.893C89.115 279.421 89.4989 279.037 89.9707 279.037H96.7407C97.2144 279.037 97.5963 279.421 97.5963 279.893C97.5963 280.364 97.2125 280.748 96.7407 280.748ZM83.2006 280.748H76.4286C75.955 280.748 75.573 280.364 75.573 279.893C75.573 279.421 75.9568 279.037 76.4286 279.037H83.2006C83.6743 279.037 84.0562 279.421 84.0562 279.893C84.0562 280.364 83.6724 280.748 83.2006 280.748ZM69.6586 280.748H62.8885C62.4148 280.748 62.0329 280.364 62.0329 279.893C62.0329 279.421 62.4167 279.037 62.8885 279.037H69.6586C70.1323 279.037 70.5142 279.421 70.5142 279.893C70.5142 280.364 70.1304 280.748 69.6586 280.748ZM56.1166 280.748H55.2778C53.106 280.748 51.0072 280.112 49.208 278.908C48.8148 278.646 48.7099 278.114 48.9739 277.721C49.236 277.328 49.7678 277.223 50.1609 277.487C51.6756 278.501 53.4449 279.037 55.2778 279.037H56.1166C56.5902 279.037 56.9722 279.421 56.9722 279.893C56.9722 280.364 56.5884 280.748 56.1166 280.748ZM45.6881 273.744C45.3249 273.744 44.9879 273.512 44.8718 273.147C44.5311 272.078 44.3569 270.96 44.3569 269.827V266.165C44.3569 265.692 44.7407 265.31 45.2126 265.31C45.6844 265.31 46.0682 265.693 46.0682 266.165V269.827C46.0682 270.784 46.2142 271.726 46.5007 272.626C46.6448 273.078 46.3958 273.559 45.9446 273.701C45.8585 273.729 45.7705 273.742 45.6844 273.742L45.6881 273.744Z" fill="black"/>
<path d="M147.031 76.6557C146.558 76.6557 146.176 76.2719 146.176 75.8001V69.0301C146.176 68.5564 146.56 68.1744 147.031 68.1744C147.503 68.1744 147.887 68.5583 147.887 69.0301V75.8001C147.887 76.2738 147.503 76.6557 147.031 76.6557ZM147.031 63.1156C146.558 63.1156 146.176 62.7318 146.176 62.26V55.4899C146.176 55.0162 146.56 54.6343 147.031 54.6343C147.503 54.6343 147.887 55.0181 147.887 55.4899V62.26C147.887 62.7337 147.503 63.1156 147.031 63.1156ZM147.031 49.5736C146.558 49.5736 146.176 49.1898 146.176 48.718V41.9479C146.176 41.4742 146.56 41.0923 147.031 41.0923C147.503 41.0923 147.887 41.4761 147.887 41.9479V48.718C147.887 49.1917 147.503 49.5736 147.031 49.5736Z" fill="black"/>
<path d="M270.319 396.834H123.046C118.326 396.834 114.143 393.007 113.703 388.287L62.6264 84.3488C62.1883 79.6289 65.6576 75.802 70.3794 75.802H217.653C222.373 75.802 226.555 79.6289 226.995 84.3488L278.072 388.287C278.51 393.007 275.041 396.834 270.319 396.834Z" fill="#1543A3"/>
<path d="M285.222 396.834H137.949C133.229 396.834 129.047 393.007 128.607 388.287L77.5296 84.3488C77.0915 79.6289 80.5608 75.802 85.2826 75.802H232.556C237.276 75.802 241.459 79.6289 241.898 84.3488L292.975 388.287C293.414 393.007 289.944 396.834 285.222 396.834Z" fill="#416AC4"/>
<path d="M284.796 392.209H137.52C135.354 392.209 133.435 390.455 133.233 388.289L125.401 341.681L117.663 295.655V295.649L106.712 230.469L100.774 195.136L93.9305 154.395L82.1559 84.3451C81.9537 82.1789 83.5489 80.4302 85.7151 80.4302H90.4425L103.917 160.598L110.64 200.608L116.519 235.578L127.311 299.795L134.995 345.536L140.067 375.707C140.269 377.873 142.19 379.633 144.354 379.633H286.902L288.355 388.287C288.557 390.453 286.962 392.207 284.796 392.207V392.209Z" fill="#E8F6FF"/>
<path d="M286.902 379.635H144.354C142.188 379.635 140.269 377.875 140.067 375.709L134.995 345.538L127.311 299.797L116.519 235.58L110.64 200.61L103.917 160.6L90.4425 80.4321H124.25L129.262 87.2546C130.507 88.949 132.25 90.1772 134.175 90.7707C134.175 90.7707 134.186 90.7763 134.203 90.782C135.041 91.0403 135.92 91.177 136.796 91.177H193.203C196.109 91.177 198.67 89.696 200.009 87.2565L200.952 85.5284L203.749 80.434H232.985C235.151 80.434 237.076 82.1827 237.278 84.3489L240.777 105.155V105.161L248.8 152.909L253.433 180.493L267.121 261.934L271.854 290.078V290.083L276 314.767L276.005 314.795L276.73 319.105L284.857 367.479L286.904 379.643L286.902 379.635Z" fill="#B5DBFE"/>
<g opacity="0.5">
<path d="M267.122 261.928L103.915 160.598L93.9287 154.395L82.1541 84.3451C81.9519 82.1789 83.547 80.4302 85.7132 80.4302H110.232L253.433 180.489L267.122 261.93V261.928Z" fill="#E3F2FF"/>
<path d="M284.796 392.209H251.125L219.84 379.635L134.993 345.536L125.401 341.681L117.663 295.655L127.309 299.795L284.855 367.471L286.902 379.635L288.355 388.289C288.557 390.455 286.962 392.209 284.796 392.209Z" fill="#E3F2FF"/>
<path d="M248.8 152.905L167.293 91.1732H193.205C196.111 91.1732 198.672 89.6923 200.011 87.2527L200.954 85.5247L240.779 105.151V105.157L248.802 152.905H248.8Z" fill="#E3F2FF"/>
</g>
<path d="M84.7434 187.059H82.4948C81.847 187.059 81.218 186.965 80.6076 186.785C78.0576 186.04 75.985 183.835 75.5244 181.126L69.1906 143.995C68.554 140.254 71.2089 137.064 74.959 137.064H76.5766C77.7936 137.064 78.8964 138.002 79.1042 139.219L80.0197 144.592L86.8366 184.548C87.0669 185.902 86.1027 187.059 84.7415 187.059H84.7434Z" fill="#416AC4"/>
<path d="M84.7434 187.059H82.4948C81.847 187.059 81.218 186.965 80.6076 186.785L74.592 151.518C73.9779 147.893 76.4512 144.783 80.0216 144.592L86.8385 184.548C87.0688 185.902 86.1045 187.059 84.7434 187.059Z" fill="#4A7CD3"/>
<path d="M207.417 105.305H227.188C228.132 105.305 228.742 104.539 228.551 103.596C228.36 102.652 227.441 101.886 226.497 101.886H206.726C205.783 101.886 205.172 102.652 205.363 103.596C205.554 104.539 206.474 105.305 207.417 105.305Z" fill="#1F77B2"/>
<path d="M208.814 112.212H228.585C229.529 112.212 230.139 111.446 229.948 110.502C229.757 109.559 228.838 108.793 227.894 108.793H208.123C207.179 108.793 206.569 109.559 206.76 110.502C206.951 111.446 207.87 112.212 208.814 112.212Z" fill="#1F77B2"/>
<path d="M210.211 119.116H229.982C230.925 119.116 231.536 118.351 231.345 117.407C231.154 116.463 230.234 115.698 229.291 115.698H209.52C208.576 115.698 207.966 116.463 208.157 117.407C208.348 118.351 209.267 119.116 210.211 119.116Z" fill="#1F77B2"/>
<path d="M101.356 110.699C102.195 116.572 106.081 121.71 111.187 124.505C113.793 125.937 116.716 126.755 119.708 126.755C122.7 126.755 125.388 125.937 127.581 124.505C131.889 121.71 134.309 116.572 133.473 110.699C132.207 101.828 123.991 94.6426 115.126 94.6426C106.256 94.6426 100.09 101.828 101.356 110.699Z" fill="#FC7900"/>
<path d="M103.419 110.306C104.258 116.179 108.145 121.316 113.25 124.112C115.857 125.544 118.779 126.362 121.771 126.362C124.763 126.362 127.451 125.544 129.644 124.112C133.952 121.316 136.373 116.179 135.536 110.306C134.27 101.435 126.055 94.2493 117.19 94.2493C108.319 94.2493 102.153 101.435 103.419 110.306Z" fill="#FE973A"/>
<path d="M112.453 106.58C112.964 110.167 116.287 113.075 119.874 113.075C123.462 113.075 125.954 110.167 125.442 106.58C124.931 102.993 121.608 100.085 118.021 100.085C114.434 100.085 111.942 102.993 112.453 106.58Z" fill="white"/>
<path d="M113.25 124.112C115.857 125.544 118.779 126.362 121.771 126.362C124.763 126.362 127.451 125.544 129.644 124.112C128.655 120.15 126.094 113.597 119.931 113.47C113.803 113.595 113.108 120.15 113.25 124.112Z" fill="white"/>
<path d="M173.024 86.2886H146.187C145.105 86.2886 144.225 85.4086 144.225 84.3265V83.6506C144.225 82.5684 145.105 81.6885 146.187 81.6885H173.024C174.106 81.6885 174.986 82.5684 174.986 83.6506V84.3265C174.986 85.4086 174.106 86.2886 173.024 86.2886ZM146.189 82.1247C145.346 82.1247 144.661 82.81 144.661 83.6525V84.3283C144.661 85.1709 145.346 85.8561 146.189 85.8561H173.026C173.868 85.8561 174.554 85.1709 174.554 84.3283V83.6525C174.554 82.81 173.868 82.1247 173.026 82.1247H146.189Z" fill="#6C95DD"/>
<path d="M182.743 86.2886H179.682C178.599 86.2886 177.719 85.4086 177.719 84.3265V83.6506C177.719 82.5684 178.599 81.6885 179.682 81.6885H182.743C183.825 81.6885 184.705 82.5684 184.705 83.6506V84.3265C184.705 85.4086 183.825 86.2886 182.743 86.2886ZM179.682 82.1247C178.839 82.1247 178.154 82.81 178.154 83.6525V84.3283C178.154 85.1709 178.839 85.8561 179.682 85.8561H182.743C183.585 85.8561 184.27 85.1709 184.27 84.3283V83.6525C184.27 82.81 183.585 82.1247 182.743 82.1247H179.682Z" fill="#6C95DD"/>
<path d="M276 314.761L229.976 92.9855C229.167 89.0837 225.73 86.2866 221.744 86.2866H216.709C211.95 86.2866 207.528 88.743 205.013 92.7833C203.901 94.5713 201.958 95.6703 199.853 95.7022C193.482 95.8014 178.935 95.9568 163.421 95.6422C143.291 95.2247 134.718 91.0421 134.203 90.7781C135.041 91.0365 135.92 91.1732 136.796 91.1732H193.203C196.109 91.1732 198.67 89.6922 200.009 87.2527L203.749 80.4302H232.985C235.151 80.4302 237.076 82.1789 237.278 84.3451L276 314.761Z" fill="#88B8E7"/>
<path d="M118.76 177.666C118.214 177.666 117.688 177.222 117.586 176.675L113.291 153.425C112.919 151.405 114.258 149.761 116.278 149.761H131.821C132.368 149.761 132.894 150.205 132.995 150.752C133.096 151.299 132.735 151.742 132.188 151.742H116.645C115.716 151.742 115.1 152.497 115.272 153.425L119.567 176.675C119.668 177.222 119.307 177.666 118.76 177.666Z" fill="white"/>
<path d="M233.664 177.666C234.211 177.666 234.572 177.222 234.471 176.675L230.176 153.425C229.804 151.405 227.857 149.761 225.836 149.761H210.293C209.746 149.761 209.385 150.205 209.486 150.752C209.587 151.299 210.113 151.742 210.66 151.742H226.203C227.132 151.742 228.025 152.497 228.197 153.425L232.492 176.675C232.593 177.222 233.119 177.666 233.666 177.666H233.664Z" fill="white"/>
<path d="M131.705 247.746C131.158 247.746 130.797 248.19 130.898 248.737L135.193 271.986C135.566 274.006 137.513 275.65 139.533 275.65H155.076C155.623 275.65 155.984 275.206 155.883 274.66C155.782 274.113 155.256 273.669 154.709 273.669H139.166C138.237 273.669 137.344 272.915 137.172 271.986L132.877 248.737C132.776 248.19 132.25 247.746 131.703 247.746H131.705Z" fill="white"/>
<path d="M246.607 247.746C247.154 247.746 247.68 248.19 247.781 248.737L252.076 271.986C252.449 274.006 251.11 275.65 249.09 275.65H233.546C233 275.65 232.474 275.206 232.372 274.66C232.271 274.113 232.633 273.669 233.179 273.669H248.723C249.651 273.669 250.267 272.915 250.095 271.986L245.8 248.737C245.699 248.19 246.06 247.746 246.607 247.746Z" fill="white"/>
<g opacity="0.56">
<path d="M252.295 319.946H144.382C140.782 319.946 137.7 317.366 137.069 313.821L134.283 298.198C133.471 293.644 136.972 289.465 141.596 289.465H249.509C253.11 289.465 256.191 292.045 256.822 295.589L259.608 311.213C260.421 315.767 256.92 319.946 252.295 319.946Z" fill="#DCEDFF"/>
</g>
<path d="M255.062 316.652H147.149C143.549 316.652 140.467 314.072 139.836 310.528L137.05 294.904C136.238 290.351 139.739 286.172 144.363 286.172H252.276C255.877 286.172 258.958 288.752 259.589 292.296L262.375 307.92C263.188 312.474 259.687 316.652 255.062 316.652Z" fill="#416AC4"/>
<g opacity="0.56">
<path d="M142.375 213.536H224.554C226.99 213.536 229.072 215.231 229.489 217.552L237.783 260.49C238.317 263.454 235.958 266.167 232.848 266.167H151.171C148.746 266.167 146.67 264.488 146.239 262.179L137.444 219.241C136.889 216.268 139.252 213.536 142.375 213.536Z" fill="#DCEDFF"/>
</g>
<path d="M133.089 216.605C134.651 216.605 135.918 215.338 135.918 213.776C135.918 212.213 134.651 210.947 133.089 210.947C131.526 210.947 130.26 212.213 130.26 213.776C130.26 215.338 131.526 216.605 133.089 216.605Z" fill="#345DA5"/>
<path d="M237.244 216.605C238.806 216.605 240.073 215.338 240.073 213.776C240.073 212.213 238.806 210.947 237.244 210.947C235.682 210.947 234.415 212.213 234.415 213.776C234.415 215.338 235.682 216.605 237.244 216.605Z" fill="#345DA5"/>
<path d="M236.48 213.13H134.177V214.257H236.48V213.13Z" fill="#345DA5"/>
<path d="M144.906 384.894H187.455C189.788 384.894 191.613 382.913 191.424 380.586L190.385 373.84C190.215 371.743 188.457 370.122 186.354 370.122H143.805C141.473 370.122 139.647 372.103 139.836 374.43L140.875 381.176C141.046 383.273 142.804 384.894 144.906 384.894Z" fill="#151B3D"/>
<path d="M147.112 384.894H189.661C191.994 384.894 193.819 382.913 193.63 380.586L192.591 373.84C192.42 371.743 190.662 370.122 188.56 370.122H146.011C143.678 370.122 141.853 372.103 142.042 374.43L143.081 381.176C143.251 383.273 145.009 384.894 147.112 384.894Z" fill="#416AC4"/>
<path d="M230.86 384.894H273.409C275.741 384.894 277.567 382.913 277.378 380.586L276.339 373.84C276.168 371.743 274.41 370.122 272.308 370.122H229.759C227.426 370.122 225.601 372.103 225.79 374.43L226.829 381.176C226.999 383.273 228.757 384.894 230.86 384.894Z" fill="#151B3D"/>
<path d="M233.067 384.894H275.616C277.949 384.894 279.774 382.913 279.585 380.586L278.546 373.84C278.376 371.743 276.618 370.122 274.515 370.122H231.966C229.633 370.122 227.808 372.103 227.997 374.43L229.036 381.176C229.206 383.273 230.964 384.894 233.067 384.894Z" fill="#416AC4"/>
<path d="M420.495 418.142C420.495 421.396 419.177 424.341 417.04 426.469C414.912 428.604 411.967 429.924 408.713 429.924H400.031C400.299 430.375 400.435 430.82 400.435 431.277C400.435 441.711 329.181 450.17 241.29 450.17C153.399 450.17 82.1391 441.711 82.1391 431.277C82.1391 430.82 82.2757 430.375 82.5435 429.924H71.4354C64.9274 429.924 59.6533 424.649 59.6533 418.142C59.6533 414.888 60.9714 411.943 63.1057 409.814C65.2345 407.679 68.1795 406.361 71.4335 406.361H408.711C415.219 406.361 420.493 411.635 420.493 418.143L420.495 418.142Z" fill="#C1DBF4"/>
<path d="M382.181 408.091C382.181 420.135 321.87 429.896 247.482 429.896C173.093 429.896 112.777 420.135 112.777 408.091C112.777 407.509 112.919 406.932 113.2 406.361H381.763C382.037 406.932 382.181 407.509 382.181 408.091Z" fill="#ACCEEA"/>
<path d="M288.486 262.192C288.486 262.192 286.308 272.404 280.37 279.093C274.425 285.788 258.193 287.795 258.275 284.616C258.357 281.441 264.802 275.667 264.802 275.667C264.802 275.667 270.493 269.223 269.743 268.719C268.986 268.219 267.23 268.801 267.23 268.801C267.23 268.801 265.305 271.394 262.46 272.317C259.614 273.239 258.945 271.314 258.945 271.314C258.945 271.314 267.9 262.945 269.492 261.273C271.081 259.601 281.54 257.341 281.54 257.341L288.488 262.194L288.486 262.192Z" fill="#FFD7D7"/>
<path d="M276 258.708C276 258.708 276.561 268.906 285.237 271.479L286.454 268.779L276 258.708Z" fill="#F7ADAD"/>
<path d="M269.743 268.719C268.986 268.219 267.23 268.801 267.23 268.801C267.23 268.801 265.305 271.394 262.46 272.317C259.614 273.238 258.945 271.314 258.945 271.314C258.945 271.314 260.136 272.357 262.493 271.72C264.85 271.078 266.326 268.178 267.943 267.897C269.561 267.618 269.743 268.719 269.743 268.719Z" fill="#F7ADAD"/>
<path d="M265.933 284.629L263.808 286.341C263.808 286.341 264.532 287.266 266.193 286.68C267.853 286.094 268.992 284.921 268.992 284.921L265.933 284.629Z" fill="#FFD7D7"/>
<path d="M262.742 284.24L260.617 285.951C260.617 285.951 261.342 286.876 263.003 286.29C264.663 285.704 265.802 284.532 265.802 284.532L262.742 284.24Z" fill="#FFD7D7"/>
<path d="M258.275 284.854C258.275 284.854 259.314 285.685 260.874 285.114C262.433 284.543 271.577 276.008 271.577 276.008C271.577 276.008 271.941 276.176 270.954 277.268C269.967 278.359 262.699 285.41 261.237 285.738C259.777 286.065 258.638 285.945 258.275 284.854Z" fill="#F7ADAD"/>
<path d="M260.437 285.957C260.437 285.957 261.477 286.788 263.036 286.217C264.596 285.646 273.74 277.11 273.74 277.11C273.74 277.11 274.103 277.279 273.116 278.37C272.13 279.462 264.862 286.513 263.399 286.84C261.939 287.168 260.801 287.048 260.437 285.957Z" fill="#F7ADAD"/>
<path d="M263.368 286.046C263.368 286.046 264.328 286.968 265.933 286.539C267.537 286.11 277.413 278.434 277.413 278.434C277.413 278.434 277.76 278.634 276.679 279.632C275.599 280.63 267.724 286.998 266.24 287.192C264.755 287.387 263.633 287.166 263.369 286.046H263.368Z" fill="#F7ADAD"/>
<path d="M306.465 415.863C306.465 419.475 304.885 421.285 304.885 421.285H262.42C260.332 421.285 258.638 419.609 258.599 417.522C258.576 416.318 258.662 414.996 258.996 413.826C259.904 410.666 264.874 411.566 268.492 409.306C271.251 407.584 279.667 400.99 283.502 397.964C284.692 397.019 285.447 396.421 285.447 396.421V386.703L303.074 384.894L301.943 395.742C301.943 395.742 302.833 398.977 303.821 402.898C305.062 407.831 306.463 413.845 306.463 415.863H306.465Z" fill="#322F2F"/>
<path d="M306.465 415.863C306.465 417.393 306.18 418.599 305.849 419.482C305.411 420.686 304.883 421.285 304.883 421.285H262.422C260.335 421.285 258.638 419.613 258.595 417.524C258.576 416.32 258.661 414.996 258.992 413.828C259.769 411.111 263.547 411.396 266.887 410.097C267.44 409.883 267.979 409.629 268.488 409.309C271.252 407.582 279.664 400.992 283.502 397.966L283.655 397.906L286.561 399.414C287.475 399.887 287.956 400.921 287.724 401.928L286.733 406.217C286.733 406.217 294.421 405.807 302.423 403.091C302.915 402.919 303.378 402.859 303.818 402.894C305.057 407.829 306.463 413.845 306.463 415.861L306.465 415.863Z" fill="#FE973A"/>
<path d="M305.849 419.482C305.411 420.686 304.883 421.285 304.883 421.285H262.422C260.335 421.285 258.638 419.613 258.595 417.524C258.576 416.32 258.661 414.996 258.992 413.828C259.769 411.111 263.547 411.396 266.887 410.097C267.541 411.563 268.43 414.438 268.632 419.48H305.849V419.482Z" fill="#FFF7F0"/>
<path d="M273.819 404.773L273.779 404.804C273.434 405.072 273.371 405.57 273.64 405.915L275.488 408.294C275.757 408.639 276.254 408.702 276.599 408.433L276.639 408.402C276.985 408.134 277.047 407.636 276.779 407.291L274.93 404.912C274.662 404.567 274.164 404.504 273.819 404.773Z" fill="#26457D"/>
<path d="M277.054 402.076L277.015 402.108C276.679 402.389 276.635 402.888 276.916 403.224L278.85 405.533C279.131 405.869 279.63 405.913 279.966 405.632L280.004 405.6C280.34 405.319 280.384 404.819 280.103 404.484L278.169 402.174C277.888 401.839 277.389 401.795 277.054 402.076Z" fill="#26457D"/>
<path d="M280.469 399.176L280.431 399.209C280.095 399.49 280.051 399.989 280.332 400.324L282.266 402.634C282.547 402.97 283.046 403.014 283.381 402.733L283.42 402.701C283.756 402.42 283.8 401.92 283.519 401.585L281.585 399.275C281.304 398.94 280.805 398.896 280.469 399.176Z" fill="#26457D"/>
<path d="M377.092 392.776C379.069 395.824 378.727 398.215 378.727 398.215L342.899 421.465C341.137 422.609 338.791 422.122 337.616 420.383C336.938 419.379 336.286 418.217 335.927 417.046C334.963 413.882 339.649 411.922 341.465 408.033C342.851 405.07 346.34 394.898 347.919 390.245C348.407 388.796 348.714 387.879 348.714 387.879L343.393 379.68L357.276 368.503L362.262 378.274C362.262 378.274 364.784 380.517 367.765 383.284C371.513 386.767 375.988 391.073 377.094 392.776H377.092Z" fill="#322F2F"/>
<path d="M377.094 392.775C377.933 394.066 378.35 395.239 378.554 396.165C378.843 397.422 378.726 398.215 378.726 398.215L342.903 421.463C341.141 422.607 338.793 422.124 337.616 420.385C336.942 419.379 336.286 418.217 335.927 417.048C335.095 414.33 338.439 412.503 340.546 409.578C340.894 409.095 341.21 408.586 341.465 408.035C342.852 405.066 346.34 394.9 347.922 390.245L348.02 390.11L351.296 389.79C352.326 389.691 353.298 390.298 353.653 391.275L355.166 395.435C355.166 395.435 361.429 390.88 366.692 384.207C367.014 383.792 367.371 383.488 367.761 383.279C371.509 386.763 375.987 391.069 377.092 392.771L377.094 392.775Z" fill="#FE973A"/>
<path d="M378.554 396.165C378.843 397.421 378.726 398.215 378.726 398.215L342.903 421.463C341.141 422.607 338.793 422.124 337.616 420.385C336.942 419.379 336.286 418.217 335.927 417.048C335.095 414.33 338.439 412.502 340.546 409.578C341.899 410.456 344.225 412.398 347.155 416.541L378.554 396.163V396.165Z" fill="#FFF7F0"/>
<path d="M343.494 401.312L343.477 401.361C343.332 401.776 343.552 402.23 343.967 402.374L346.83 403.369C347.245 403.514 347.699 403.294 347.843 402.879L347.86 402.83C348.004 402.415 347.785 401.961 347.37 401.817L344.507 400.821C344.092 400.677 343.638 400.897 343.494 401.312Z" fill="#26457D"/>
<path d="M344.741 397.263L344.726 397.313C344.597 397.733 344.832 398.179 345.253 398.308L348.15 399.198C348.57 399.327 349.015 399.091 349.144 398.671L349.16 398.621C349.289 398.201 349.053 397.756 348.633 397.627L345.735 396.736C345.315 396.607 344.87 396.843 344.741 397.263Z" fill="#26457D"/>
<path d="M346.037 392.946L346.021 392.996C345.892 393.417 346.128 393.862 346.548 393.991L349.446 394.881C349.866 395.01 350.311 394.774 350.44 394.354L350.455 394.304C350.584 393.884 350.348 393.439 349.928 393.31L347.031 392.419C346.611 392.29 346.166 392.526 346.037 392.946Z" fill="#26457D"/>
<path d="M362.524 374.876C362.524 374.876 358.291 385.963 343.32 386.326C343.32 386.326 316.609 344.287 312.402 336.933L307.938 323.009L307.91 323.157L304.784 339.295L305.639 380.67L305.836 390.114C305.836 390.114 293.486 397.594 280.879 390.114L278.778 334.042L286.132 257.339H330.787L338.537 329.578L358.69 367.63L362.522 374.874L362.524 374.876Z" fill="#243760"/>
<path d="M304.784 339.296L305.639 380.67L298.774 381.262C298.774 381.262 297.343 345.232 296.482 338.477C295.626 331.72 296.482 282.053 296.482 282.053C300.612 289.05 307.416 320.835 307.91 323.155L304.784 339.294V339.296Z" fill="#1A2850"/>
<path d="M307.937 323.295C307.805 323.295 307.688 323.205 307.658 323.072C307.577 322.713 299.491 287.082 296.403 282.452C296.315 282.321 296.351 282.143 296.482 282.057C296.611 281.971 296.789 282.004 296.877 282.135C300.022 286.854 307.88 321.475 308.214 322.947C308.249 323.1 308.152 323.254 307.998 323.288C307.978 323.293 307.955 323.295 307.935 323.295H307.937Z" fill="#304975"/>
<path d="M358.691 367.63L353.344 372.829C353.344 372.829 333.689 337.76 330.306 329.567C326.923 321.38 323.325 276.659 323.325 276.659C312.127 275.775 309.056 261.578 308.386 257.339H330.787L338.537 329.578L358.69 367.63H358.691Z" fill="#1A2850"/>
<path d="M357.978 381.266C357.879 381.266 357.782 381.213 357.729 381.12C356.681 379.251 332.038 335.3 330.138 330.956C328.271 326.69 323.225 280.99 322.782 276.94C312.911 275.422 310.479 265.072 310.455 264.967C310.421 264.813 310.517 264.662 310.672 264.626C310.829 264.591 310.979 264.688 311.013 264.842C311.035 264.943 313.424 275.064 323.081 276.406C323.21 276.425 323.311 276.528 323.326 276.657C323.381 277.155 328.784 326.435 330.662 330.728C332.551 335.047 357.973 380.384 358.229 380.841C358.306 380.977 358.257 381.152 358.119 381.23C358.074 381.255 358.027 381.266 357.98 381.266H357.978Z" fill="#304975"/>
<path d="M335.902 377.257C338.829 375.93 350.551 370.184 355.544 361.294C355.773 360.886 356.36 360.89 356.593 361.294L363.7 373.747C363.791 373.908 363.805 374.101 363.735 374.273C362.971 376.194 357.877 387.407 342.869 387.972C342.663 387.98 342.463 387.88 342.345 387.712L335.657 378.158C335.44 377.847 335.558 377.415 335.904 377.257H335.902Z" fill="#5E86C6"/>
<path d="M279.772 375.767C282.599 376.54 293.842 379.202 306.289 376.503C306.62 376.431 306.933 376.679 306.933 377.017V391.868C306.933 392.095 306.793 392.297 306.577 392.37C304.387 393.115 292.41 396.721 279.718 391.202C279.527 391.119 279.402 390.93 279.396 390.72L279.106 376.289C279.098 375.935 279.431 375.671 279.772 375.765V375.767Z" fill="#5E86C6"/>
<path d="M292.255 163.141L287.945 158.419C287.711 158.162 287.308 158.166 287.078 158.424L272.107 175.271C272.027 175.363 271.976 175.477 271.963 175.599C271.825 176.928 271.117 184.836 273.88 184.997C276.825 185.171 289.577 169.044 292.339 163.807C292.455 163.588 292.421 163.322 292.255 163.139V163.141Z" fill="#FF9D00"/>
<path d="M291.476 165.539L277.952 177.237L275.972 171.231L274.092 165.539L286.14 156.095L286.846 157.352L291.476 165.539Z" fill="#FFD4D4"/>
<path d="M286.846 157.352C286.818 157.451 286.786 157.554 286.746 157.659C284.125 165.172 278.806 169.411 275.97 171.231L274.088 165.539L286.136 156.095L286.844 157.352H286.846Z" fill="#F7ADAD"/>
<path d="M260.72 141.389C260.49 143.171 260.349 145.506 260.54 148.267L256.77 153.515C256.521 153.864 256.601 154.348 256.951 154.596L260.076 156.807C260.076 156.807 259.123 166.415 268.539 167.679C277.954 168.943 285.314 157.254 285.314 157.254L288.106 141.359C288.106 141.359 278.847 119.126 263.864 134.793C262.139 136.596 261.038 138.915 260.72 141.391V141.389Z" fill="#FFD4D4"/>
<path d="M262.036 125.286C260.838 125.169 257.807 125.594 255.3 131.99C255.221 132.192 255.236 132.424 255.345 132.614C256.315 134.291 261.677 142.226 275.599 140.546C275.97 140.501 276.324 140.735 276.402 141.1C276.657 142.272 277.541 144.817 280.592 146.912C280.753 147.022 280.868 147.191 280.901 147.382C281.096 148.498 281.822 152.388 282.554 152.912C283.283 153.435 288.753 153.512 290.356 153.523C290.628 153.525 290.875 153.375 291.002 153.133L297.008 141.683C297.705 140.355 298.019 138.865 297.927 137.369C297.658 133.042 295.694 124.825 284.702 124.546C284.35 124.537 284.034 124.256 284 123.906C283.949 123.363 283.706 122.558 282.828 121.854C282.279 121.414 281.497 121.906 281.658 122.591C281.661 122.606 281.665 122.619 281.667 122.634C281.811 123.271 281.085 123.748 280.549 123.376C279.07 122.35 276.219 120.607 273.135 119.978C269.084 119.152 264.611 120.339 262.768 124.842C262.65 125.132 262.351 125.315 262.04 125.284L262.036 125.286Z" fill="#43000F"/>
<path d="M285.784 158.2C285.784 158.2 282.948 157.552 282.783 153.972L286.144 156.908L285.784 158.2Z" fill="#F7ADAD"/>
<path d="M291.879 151.976C292.118 148.649 290.216 145.801 287.629 145.615C285.043 145.428 282.752 147.974 282.512 151.301C282.272 154.629 284.175 157.477 286.761 157.663C289.348 157.849 291.639 155.303 291.879 151.976Z" fill="#FFD7D7"/>
<path d="M286.286 155.344C286.175 155.344 286.069 155.284 286.014 155.178C284.095 151.444 286.471 148.885 286.496 148.861C286.612 148.739 286.804 148.733 286.928 148.85C287.05 148.966 287.055 149.158 286.941 149.282C286.855 149.374 284.848 151.562 286.561 154.899C286.638 155.049 286.58 155.234 286.428 155.311C286.383 155.333 286.336 155.344 286.288 155.344H286.286Z" fill="#F7ADAD"/>
<path d="M265.574 149.693C266.336 149.67 266.93 148.879 266.9 147.927C266.87 146.975 266.229 146.223 265.467 146.246C264.706 146.27 264.112 147.061 264.142 148.013C264.171 148.965 264.813 149.717 265.574 149.693Z" fill="#43000F"/>
<path d="M263.888 143.422C263.888 143.422 265.305 142.724 266.777 142.885C267.604 142.976 268.175 143.566 268.518 144.064C268.776 144.442 268.503 144.98 268.044 144.974C267.653 144.97 267.163 144.854 266.648 144.456C265.448 143.529 263.482 144.208 263.888 143.42V143.422Z" fill="#43000F"/>
<path d="M278.253 153.198C278.799 150.065 276.959 147.127 274.142 146.635C271.326 146.144 268.6 148.286 268.053 151.42C267.507 154.553 269.348 157.491 272.164 157.982C274.981 158.473 277.707 156.331 278.253 153.198Z" fill="#FFA4A4"/>
<path d="M262.561 159.404L267.348 158.849C267.348 158.849 266.253 164.477 262.561 159.404Z" fill="#DC4460"/>
<path d="M233.288 188.661L227.958 177.493C227.958 177.493 223.575 170.555 222.627 168.694L219.048 161.684C218.748 161.096 217.945 161.019 217.531 161.532C216.76 162.489 216.103 164.5 217.804 168.523L212.869 173.968C212.616 174.247 212.474 174.612 212.474 174.99V177.068L211.059 180.777C210.84 181.348 210.986 181.996 211.428 182.419L212.643 183.582V185.274C212.643 185.274 215.689 188.15 216.28 188.066C216.872 187.982 217.973 188.066 217.973 188.066C217.973 188.066 220.596 191.11 221.569 192.548C222.543 193.986 228.042 194.58 228.042 194.58C228.042 194.58 234.303 193.817 233.288 188.658V188.661Z" fill="#FFD7D7"/>
<path d="M226.58 189.865C226.537 189.865 226.494 189.856 226.452 189.833C221.961 187.474 221.399 182.479 220.987 178.83C220.929 178.312 220.873 177.817 220.809 177.36C220.315 173.813 217.568 168.705 217.54 168.654C217.467 168.522 217.518 168.355 217.651 168.284C217.784 168.211 217.95 168.261 218.022 168.394C218.138 168.606 220.843 173.64 221.352 177.286C221.416 177.746 221.472 178.244 221.532 178.768C221.929 182.294 222.474 187.122 226.707 189.348C226.842 189.418 226.892 189.584 226.823 189.717C226.774 189.811 226.679 189.863 226.582 189.863L226.58 189.865Z" fill="#F7ADAD"/>
<path d="M219.519 186.587C219.519 186.587 223.108 187.394 224.307 188.246C224.307 188.246 221.693 183.88 221.354 180.053L220.09 182.189L219.521 186.587H219.519Z" fill="#F7ADAD"/>
<path d="M215.745 179.605L217.933 178.913L217.001 180.568L215.745 179.605Z" fill="#F7ADAD"/>
<path d="M215.073 179.967C214.281 179.967 213.12 177.027 212.285 174.561C212.236 174.419 212.313 174.264 212.457 174.215C212.601 174.166 212.755 174.243 212.804 174.385C213.582 176.683 214.68 179.263 215.097 179.422C215.586 179.418 218.96 177.98 220.968 177.074C221.103 177.012 221.268 177.074 221.33 177.211C221.392 177.349 221.33 177.51 221.193 177.572C220.308 177.971 215.855 179.965 215.073 179.965V179.967Z" fill="#F7ADAD"/>
<path d="M216.763 185.353C216.408 185.353 216.046 185.284 215.698 185.141L212.515 183.837C212.375 183.778 212.309 183.619 212.365 183.479C212.422 183.339 212.583 183.271 212.723 183.329L215.906 184.634C216.926 185.054 218.093 184.675 218.673 183.735L221.152 179.733C221.231 179.603 221.399 179.564 221.528 179.645C221.657 179.723 221.697 179.894 221.616 180.021L219.137 184.024C218.613 184.872 217.707 185.351 216.763 185.351V185.353Z" fill="#F7ADAD"/>
<path d="M217.975 188.345C217.866 188.345 217.763 188.279 217.72 188.171C217.664 188.03 217.735 187.871 217.874 187.817C217.92 187.798 218.954 187.369 219.259 186.102C219.596 184.709 219.766 182.054 219.768 182.028C219.778 181.876 219.926 181.764 220.059 181.771C220.21 181.781 220.324 181.91 220.315 182.062C220.308 182.172 220.139 184.789 219.793 186.229C219.416 187.783 218.128 188.304 218.074 188.324C218.042 188.337 218.007 188.343 217.975 188.343V188.345Z" fill="#F7ADAD"/>
<path d="M217.001 180.996C216.943 180.996 216.885 180.978 216.838 180.942L215.339 179.824C215.217 179.734 215.193 179.562 215.282 179.442C215.372 179.321 215.545 179.296 215.664 179.386L216.885 180.296C217.57 178.798 218.598 178.126 218.645 178.096C218.77 178.016 218.941 178.051 219.021 178.179C219.104 178.306 219.066 178.474 218.941 178.557C218.93 178.564 217.862 179.268 217.256 180.822C217.224 180.901 217.158 180.963 217.076 180.985C217.052 180.993 217.026 180.996 217.001 180.996Z" fill="#F7ADAD"/>
<path d="M216.106 176.13C216.014 176.13 215.925 176.083 215.872 175.999C215.794 175.87 215.835 175.701 215.962 175.623C218.51 174.061 220.573 174.805 220.66 174.837C220.8 174.889 220.871 175.046 220.819 175.187C220.766 175.329 220.609 175.4 220.469 175.348C220.45 175.34 218.559 174.672 216.247 176.087C216.202 176.115 216.153 176.126 216.104 176.126L216.106 176.13Z" fill="#F7ADAD"/>
<path d="M212.354 174.277L215.005 171.615L212.854 174.533L212.354 174.277Z" fill="#F7ADAD"/>
<path d="M218.022 168.394C218.022 168.394 216.973 165.885 216.951 164.573C216.928 163.26 216.994 162.319 217.263 161.926C217.263 161.926 215.767 163.745 217.51 168.555L218.022 168.394Z" fill="#F7ADAD"/>
<path d="M212.723 183.331L211.317 181.704C211.317 181.704 211.098 180.506 211.508 179.603C211.508 179.603 210.641 180.803 210.881 181.99C210.881 181.99 212.315 183.722 212.448 183.793C212.581 183.865 212.721 183.331 212.721 183.331H212.723Z" fill="#F7ADAD"/>
<path d="M217.876 187.815C217.876 187.815 216.546 187.982 216.224 187.875C215.902 187.768 213.848 186.364 213.848 186.364C213.848 186.364 215.522 187.952 215.863 188.188C216.204 188.423 218.076 188.324 218.076 188.324L217.876 187.815Z" fill="#F7ADAD"/>
<path d="M297.941 182.166C297.941 182.166 295.084 189.697 290.154 198.333C283.189 210.529 272.074 224.919 258.979 223.438C253.293 222.796 248.27 220.806 243.937 218.19C231.221 210.535 224.47 197.523 224.47 197.523C226.289 188.605 235.037 185.799 235.037 185.799C238.01 188.442 251.878 198.346 251.878 198.346C253.529 196.53 255.178 198.346 255.178 198.346L268.838 186.967L273.011 183.49C274.624 182.294 276.148 181.296 277.58 180.474C292.578 171.854 297.941 182.168 297.941 182.168V182.166Z" fill="#FFBB4F"/>
<path d="M290.154 198.333C283.189 210.529 272.074 224.919 258.979 223.439C253.293 222.796 248.27 220.806 243.937 218.191C253.171 218.279 261.192 216.036 263.811 208.193C267.35 197.596 268.84 186.965 268.84 186.965L273.013 183.488C274.625 182.292 276.149 181.294 277.582 180.472L290.156 198.333H290.154Z" fill="#E28B00"/>
<path d="M282.53 171.545L293.721 165.223C293.721 165.223 304.228 168.937 314.48 184.593C324.731 200.251 335.17 237.342 334.611 263.623C334.611 263.623 305.907 266.605 279.252 263.623C279.252 263.623 280.557 230.444 277.387 218.516C274.219 206.588 274.777 180.306 274.777 180.306L282.53 171.545Z" fill="#FF9D00"/>
<path d="M293.634 164.554L289.324 159.832C289.09 159.576 288.688 159.58 288.458 159.838L273.487 176.685C273.407 176.776 273.356 176.89 273.343 177.012C273.204 178.341 272.497 186.25 275.26 186.411C278.205 186.585 290.957 170.457 293.719 165.221C293.835 165.002 293.801 164.736 293.634 164.552V164.554Z" fill="#FFBB4F"/>
<path d="M320.331 237.351C315.319 244.891 287.724 270.342 287.724 270.342C285.805 269.612 284.193 268.747 282.831 267.815C276.29 263.306 275.758 257.22 275.758 257.22L294.666 233.485C293.316 231.165 294.666 230.008 294.666 230.008L288.299 204.542C283.477 182.931 294.666 178.795 294.666 178.795C302.969 177.172 307.789 180.998 312.422 189.68C316.075 196.529 325.348 229.817 320.331 237.351Z" fill="#FFBB4F"/>
<path d="M320.331 237.351C315.319 244.891 287.724 270.342 287.724 270.342C285.805 269.612 284.193 268.747 282.832 267.815C284 266.981 306.555 244.732 311.436 238.958C316.448 233.024 314.956 208.99 310.447 193.087C305.933 177.179 294.664 178.796 294.664 178.796C302.968 177.173 307.787 181 312.421 189.682C316.073 196.53 325.347 229.819 320.329 237.353L320.331 237.351Z" fill="#E18B01"/>
<path d="M370.202 141.733C370.202 141.733 379.18 118.639 396.848 118.656C417.866 118.675 411.895 145.027 411.895 145.027H402.538C402.538 145.027 407.25 128.289 396.7 127.109C386.15 125.93 377.895 145.027 377.895 145.027C377.895 145.027 364.497 147.829 370.204 141.735L370.202 141.733Z" fill="#151B3D"/>
<path d="M423.434 139.854L430.403 149.103C431.226 150.196 431.612 151.561 431.472 152.924C430.174 165.556 420.257 229.531 352.011 236.76C349.796 236.994 347.58 236.322 345.842 234.929L338.084 228.705L423.434 139.854Z" fill="#F48C37"/>
<path d="M356.746 139.854C356.746 139.854 395.751 143.587 423.432 139.854C423.432 139.854 417.771 225.034 338.082 228.705C338.082 228.705 328.87 222.239 328.339 197.493C328.339 197.493 351.085 167.284 356.746 139.854Z" fill="#FEB678"/>
<path d="M374.982 184.278C374.982 184.278 374.046 186.636 372.368 189.895C369.371 195.729 364.018 204.45 357.46 207.676C357.46 207.676 352.431 209.966 352.888 204.931C352.888 204.931 365.233 191.21 365.999 183.133C365.999 183.133 360.884 175.604 368.049 165.753C374.521 156.854 382.771 157.522 385.51 161.791C385.613 161.95 385.71 162.117 385.794 162.298C388.084 166.996 385.691 179.074 374.984 184.28L374.982 184.278Z" fill="white"/>
<path d="M374.982 184.278C374.982 184.278 374.046 186.636 372.368 189.895C372.368 189.895 368.51 189.279 373.355 180.951C373.355 180.951 370.268 167.993 385.792 162.298C388.082 166.996 385.689 179.073 374.982 184.28V184.278Z" fill="#151B3D"/>
<path d="M343.86 157.754C353.746 157.754 361.76 149.74 361.76 139.854C361.76 129.968 353.746 121.953 343.86 121.953C333.973 121.953 325.959 129.968 325.959 139.854C325.959 149.74 333.973 157.754 343.86 157.754Z" fill="#DC4460"/>
<path d="M338.074 138.738L341.843 142.316C342.135 142.578 342.594 142.503 342.785 142.16L352.961 123.943C353.539 122.908 354.829 122.509 355.891 123.039L357.609 123.898C358.735 124.46 359.169 125.845 358.564 126.95L346.501 149C345.455 150.913 342.901 151.355 341.272 149.904L334.15 143.373C333.33 142.643 333.201 141.408 333.854 140.524L334.942 139.052C335.687 138.045 337.14 137.899 338.072 138.738H338.074Z" fill="white"/>
<path d="M343.521 151.037C342.63 151.037 341.77 150.713 341.091 150.108L333.967 143.576C333.036 142.748 332.894 141.365 333.637 140.361L334.725 138.889C335.126 138.347 335.741 137.996 336.414 137.929C337.086 137.862 337.758 138.083 338.26 138.534L338.265 138.539L342.034 142.117C342.105 142.181 342.206 142.211 342.309 142.194C342.41 142.177 342.498 142.115 342.549 142.026L352.725 123.808C353.376 122.642 354.822 122.196 356.016 122.794L357.735 123.653C358.347 123.958 358.796 124.486 359 125.14C359.205 125.793 359.137 126.482 358.808 127.083L346.745 149.133C346.206 150.117 345.262 150.793 344.153 150.984C343.942 151.02 343.73 151.039 343.521 151.039V151.037ZM336.651 138.466C336.59 138.466 336.528 138.47 336.468 138.476C335.949 138.528 335.476 138.798 335.165 139.217L334.077 140.689C333.504 141.464 333.615 142.529 334.334 143.171L341.457 149.704C342.169 150.336 343.116 150.608 344.058 150.445C345 150.282 345.803 149.707 346.262 148.87L358.325 126.821C358.581 126.353 358.634 125.814 358.474 125.306C358.315 124.799 357.965 124.385 357.488 124.147L355.769 123.288C354.837 122.822 353.708 123.17 353.2 124.08L343.025 142.297C342.892 142.533 342.663 142.694 342.397 142.739C342.13 142.784 341.862 142.705 341.66 142.524L337.889 138.942C337.548 138.637 337.106 138.468 336.651 138.468V138.466Z" fill="#F94153"/>
<path d="M366.328 14.231H257.298C254.447 14.231 252.136 16.542 252.136 19.3928V77.7266C252.136 80.5774 254.447 82.8884 257.298 82.8884H366.328C369.179 82.8884 371.49 80.5774 371.49 77.7266V19.3928C371.49 16.542 369.179 14.231 366.328 14.231Z" fill="#4EABC4"/>
<path d="M370.288 14.231H261.258C258.407 14.231 256.096 16.542 256.096 19.3928V77.7266C256.096 80.5774 258.407 82.8884 261.258 82.8884H370.288C373.139 82.8884 375.45 80.5774 375.45 77.7266V19.3928C375.45 16.542 373.139 14.231 370.288 14.231Z" fill="#70BBD6"/>
<path d="M273.146 38.3662C278.107 38.3662 282.128 34.3452 282.128 29.385C282.128 24.4248 278.107 20.4038 273.146 20.4038C268.186 20.4038 264.165 24.4248 264.165 29.385C264.165 34.3452 268.186 38.3662 273.146 38.3662Z" fill="#151B3D"/>
<path d="M283.515 38.3662C288.475 38.3662 292.496 34.3452 292.496 29.385C292.496 24.4248 288.475 20.4038 283.515 20.4038C278.555 20.4038 274.534 24.4248 274.534 29.385C274.534 34.3452 278.555 38.3662 283.515 38.3662Z" fill="#97D9E8"/>
<path d="M363.488 21.8699H346.391C344.993 21.8699 343.86 23.0032 343.86 24.4012V33.5059C343.86 34.9039 344.993 36.0372 346.391 36.0372H363.488C364.886 36.0372 366.02 34.9039 366.02 33.5059V24.4012C366.02 23.0032 364.886 21.8699 363.488 21.8699Z" fill="white"/>
<path d="M362.601 55.3325H268.949C267.061 55.3325 265.53 56.8631 265.53 58.7513V58.7531C265.53 60.6412 267.061 62.1719 268.949 62.1719H362.601C364.489 62.1719 366.02 60.6412 366.02 58.7531V58.7513C366.02 56.8631 364.489 55.3325 362.601 55.3325Z" fill="white"/>
<path d="M290.24 68.8728H267.786C266.54 68.8728 265.53 69.8825 265.53 71.1279C265.53 72.3734 266.54 73.3831 267.786 73.3831H290.24C291.486 73.3831 292.496 72.3734 292.496 71.1279C292.496 69.8825 291.486 68.8728 290.24 68.8728Z" fill="white"/>
<path d="M310.736 68.8728H299.51C298.264 68.8728 297.254 69.8825 297.254 71.1279C297.254 72.3734 298.264 73.3831 299.51 73.3831H310.736C311.982 73.3831 312.992 72.3734 312.992 71.1279C312.992 69.8825 311.982 68.8728 310.736 68.8728Z" fill="white"/>
<path d="M342.263 68.8728H319.809C318.563 68.8728 317.553 69.8825 317.553 71.1279C317.553 72.3734 318.563 73.3831 319.809 73.3831H342.263C343.509 73.3831 344.519 72.3734 344.519 71.1279C344.519 69.8825 343.509 68.8728 342.263 68.8728Z" fill="white"/>
<path d="M70.2072 228.703H16.5652C14.5851 228.703 12.9799 230.308 12.9799 232.288V262.58C12.9799 264.56 14.5851 266.165 16.5652 266.165H70.2072C72.1873 266.165 73.7925 264.56 73.7925 262.58V232.288C73.7925 230.308 72.1873 228.703 70.2072 228.703Z" fill="#F27C1C"/>
<path d="M62.6134 210.129H24.161C22.9957 210.129 22.051 211.073 22.051 212.239V250.691C22.051 251.856 22.9957 252.801 24.161 252.801H62.6134C63.7787 252.801 64.7234 251.856 64.7234 250.691V212.239C64.7234 211.073 63.7787 210.129 62.6134 210.129Z" fill="white"/>
<path d="M62.6133 253.076H24.161C22.8467 253.076 21.7776 252.007 21.7776 250.693V212.241C21.7776 210.926 22.8467 209.857 24.161 209.857H62.6133C63.9277 209.857 64.9967 210.926 64.9967 212.241V250.693C64.9967 252.007 63.9277 253.076 62.6133 253.076ZM24.161 210.404C23.1481 210.404 22.3262 211.228 22.3262 212.239V250.691C22.3262 251.704 23.15 252.528 24.161 252.528H62.6133C63.6262 252.528 64.45 251.704 64.45 250.691V212.239C64.45 211.226 63.6262 210.404 62.6133 210.404H24.161Z" fill="#7DB8FF"/>
<path d="M58.9849 219.488H27.7895C27.4358 219.488 27.1491 219.774 27.1491 220.127C27.1491 220.481 27.4358 220.767 27.7895 220.767H58.9849C59.3386 220.767 59.6252 220.481 59.6252 220.127C59.6252 219.774 59.3386 219.488 58.9849 219.488Z" fill="#7DB8FF"/>
<path d="M58.9849 225.431H27.7895C27.4358 225.431 27.1491 225.717 27.1491 226.07C27.1491 226.423 27.4358 226.709 27.7895 226.709H58.9849C59.3386 226.709 59.6252 226.423 59.6252 226.07C59.6252 225.717 59.3386 225.431 58.9849 225.431Z" fill="#7DB8FF"/>
<path d="M58.9849 231.375H27.7895C27.4358 231.375 27.1491 231.661 27.1491 232.014C27.1491 232.367 27.4358 232.654 27.7895 232.654H58.9849C59.3386 232.654 59.6252 232.367 59.6252 232.014C59.6252 231.661 59.3386 231.375 58.9849 231.375Z" fill="#7DB8FF"/>
<path d="M58.9849 237.317H27.7895C27.4358 237.317 27.1491 237.604 27.1491 237.957C27.1491 238.31 27.4358 238.596 27.7895 238.596H58.9849C59.3386 238.596 59.6252 238.31 59.6252 237.957C59.6252 237.604 59.3386 237.317 58.9849 237.317Z" fill="#7DB8FF"/>
<path d="M73.7925 234.279V262.582C73.7925 264.561 72.1918 266.169 70.2109 266.169H16.5615C14.9551 266.169 13.5996 265.117 13.1446 263.658C13.0342 263.317 12.9799 262.956 12.9799 262.584V234.281L24.6215 242.901C25.9321 243.87 27.5217 244.398 29.1561 244.398H57.6125C59.247 244.398 60.8366 243.872 62.1471 242.901L71.6226 235.881L73.7888 234.281L73.7925 234.279Z" fill="#FE973A"/>
<path d="M73.7925 234.279V262.582C73.7925 264.561 72.1918 266.169 70.2109 266.169H16.5615C14.9551 266.169 13.5996 265.117 13.1446 263.658C25.099 263.784 60.947 263.911 66.7828 261.148C72.5026 258.438 72.0083 241.91 71.6245 235.883L73.7907 234.283L73.7925 234.279Z" fill="#FCAA3D"/>
<path d="M121.799 41.4798H193.362C196.275 41.4798 198.739 39.3304 199.134 36.4453C199.924 30.6787 199.185 21.7275 187.826 19.4022C187.826 19.4022 180.605 0.625324 161.002 0.831272C141.4 1.03722 135.828 17.9568 135.828 17.9568C135.828 17.9568 115.493 16.9139 115.976 35.8817C116.057 39.0084 118.669 41.4798 121.797 41.4798H121.799Z" fill="#4069C1"/>
<path d="M170.777 28.707H165.091V41.4796H156.769V28.707H151.075C150.291 28.707 149.896 27.7597 150.448 27.2017L159.531 18.0352C160.298 17.2601 161.553 17.2601 162.32 18.0352L171.403 27.2017C171.955 27.7597 171.56 28.707 170.775 28.707H170.777Z" fill="white"/>
</svg>
