<svg width="28" height="28" viewBox="0 0 28 28" fill="none" xmlns="http://www.w3.org/2000/svg">
<path d="M8.40002 0.666504H19.6C23.8667 0.666504 27.3334 4.13317 27.3334 8.39984V19.5998C27.3334 21.6508 26.5186 23.6178 25.0683 25.0681C23.618 26.5184 21.651 27.3332 19.6 27.3332H8.40002C4.13335 27.3332 0.666687 23.8665 0.666687 19.5998V8.39984C0.666687 6.34883 1.48145 4.38183 2.93173 2.93155C4.38201 1.48126 6.34901 0.666504 8.40002 0.666504ZM8.13335 3.33317C6.86031 3.33317 5.63942 3.83888 4.73924 4.73906C3.83907 5.63923 3.33335 6.86013 3.33335 8.13317V19.8665C3.33335 22.5198 5.48002 24.6665 8.13335 24.6665H19.8667C21.1397 24.6665 22.3606 24.1608 23.2608 23.2606C24.161 22.3604 24.6667 21.1395 24.6667 19.8665V8.13317C24.6667 5.47984 22.52 3.33317 19.8667 3.33317H8.13335ZM21 5.33317C21.442 5.33317 21.866 5.50877 22.1785 5.82133C22.4911 6.13389 22.6667 6.55781 22.6667 6.99984C22.6667 7.44186 22.4911 7.86579 22.1785 8.17835C21.866 8.49091 21.442 8.6665 21 8.6665C20.558 8.6665 20.1341 8.49091 19.8215 8.17835C19.5089 7.86579 19.3334 7.44186 19.3334 6.99984C19.3334 6.55781 19.5089 6.13389 19.8215 5.82133C20.1341 5.50877 20.558 5.33317 21 5.33317ZM14 7.33317C15.7681 7.33317 17.4638 8.03555 18.7141 9.28579C19.9643 10.536 20.6667 12.2317 20.6667 13.9998C20.6667 15.7679 19.9643 17.4636 18.7141 18.7139C17.4638 19.9641 15.7681 20.6665 14 20.6665C12.2319 20.6665 10.5362 19.9641 9.28598 18.7139C8.03573 17.4636 7.33335 15.7679 7.33335 13.9998C7.33335 12.2317 8.03573 10.536 9.28598 9.28579C10.5362 8.03555 12.2319 7.33317 14 7.33317ZM14 9.99984C12.9392 9.99984 11.9217 10.4213 11.1716 11.1714C10.4214 11.9216 10 12.939 10 13.9998C10 15.0607 10.4214 16.0781 11.1716 16.8283C11.9217 17.5784 12.9392 17.9998 14 17.9998C15.0609 17.9998 16.0783 17.5784 16.8284 16.8283C17.5786 16.0781 18 15.0607 18 13.9998C18 12.939 17.5786 11.9216 16.8284 11.1714C16.0783 10.4213 15.0609 9.99984 14 9.99984Z" fill="white"/>
</svg>
