<svg width="109" height="24" viewBox="0 0 109 24" fill="none" xmlns="http://www.w3.org/2000/svg">
<g clip-path="url(#clip0_93_1023)">
<path d="M0 23.0351V0.971191H4.856V23.0351H0ZM3.34087 4.84745V0.971191H17.0721V4.84745H3.34087ZM3.34087 13.6743V10.0996H15.4872V13.6743H3.34087ZM3.34087 23.0351V19.1211H17.1735V23.0351H3.34087Z" fill="white"/>
<path d="M20.9518 23.0351V0.971191H27.2595L37.3772 16.583H37.7512L37.4153 0.971191H42.1381V23.0351H36.439L25.7444 6.68821H25.4084L25.681 23.0351H20.9581H20.9518Z" fill="white"/>
<path d="M57.283 23.5001C55.5714 23.5001 54.0436 23.2613 52.6933 22.7839C51.343 22.3064 50.1892 21.5839 49.2383 20.629C48.281 19.6741 47.5583 18.4992 47.0639 17.1171C46.5694 15.735 46.3221 14.1078 46.3221 12.2357C46.3221 10.3635 46.5694 8.66723 47.0639 7.22227C47.5583 5.77103 48.281 4.54595 49.2383 3.54705C50.1955 2.54186 51.3239 1.78796 52.6299 1.2728C53.9358 0.757645 55.3875 0.506348 56.985 0.506348C58.2466 0.506348 59.394 0.663409 60.44 0.97753C61.486 1.29165 62.3989 1.75027 63.1723 2.36595C63.9457 2.98163 64.548 3.72296 64.9791 4.58993C65.4038 5.45691 65.632 6.43697 65.651 7.53011L61.1627 8.73634C61.1627 7.75628 60.9472 6.95213 60.5224 6.33017C60.0977 5.70821 59.5525 5.23702 58.9059 4.92918C58.2529 4.61506 57.5556 4.458 56.8139 4.458C56.1863 4.458 55.546 4.58993 54.893 4.86008C54.2401 5.13022 53.6442 5.55114 53.1053 6.12913C52.5665 6.70711 52.1417 7.47357 51.8374 8.42222C51.5331 9.37087 51.381 10.5457 51.381 11.9467C51.381 13.7749 51.6409 15.2449 52.1544 16.3569C52.6742 17.4689 53.3969 18.2919 54.3288 18.8134C55.2607 19.3348 56.2877 19.5987 57.4161 19.5987C58.6523 19.5987 59.6159 19.3411 60.3006 18.8322C60.9852 18.3171 61.4797 17.67 61.784 16.8784C62.0883 16.0868 62.2594 15.2575 62.3102 14.3905L66.5259 15.0565C66.5005 16.2376 66.323 17.3496 65.987 18.3799C65.651 19.4102 65.1185 20.3212 64.4022 21.0876C63.6795 21.8541 62.7349 22.4509 61.5494 22.8781C60.3703 23.299 58.9439 23.5126 57.283 23.5126V23.5001Z" fill="white"/>
<path d="M70.0379 23.0351V0.971191H74.8622V23.0351H70.0379ZM72.3328 5.0799V0.971191H86.6345V5.08619H72.3328V5.0799ZM72.3328 14.7737V10.8283H85.3223V14.7737H72.3328Z" fill="black"/>
<path d="M95.9788 23.0351V16.1496L87.782 0.971191H93.5825L98.3371 11.8398H98.5083L103.263 0.971191H109L100.867 16.1181V23.0414H95.9725L95.9788 23.0351Z" fill="black"/>
</g>
<defs>
<clipPath id="clip0_93_1023">
<rect width="109" height="23" fill="white" transform="translate(0 0.5)"/>
</clipPath>
</defs>
</svg>
