<svg width="1056" height="42" viewBox="0 0 1056 42" fill="none" xmlns="http://www.w3.org/2000/svg">
<path d="M59.4494 33.9845C56.9136 33.9845 54.698 33.4081 52.8026 32.2555C50.9072 31.1029 49.4344 29.502 48.3842 27.4529C47.334 25.3782 46.8089 22.9705 46.8089 20.2298C46.8089 17.4635 47.3468 15.0302 48.4226 12.9298C49.524 10.8039 51.0736 9.1518 53.0715 7.97356C55.095 6.76971 57.4899 6.16778 60.2562 6.16778C63.4067 6.16778 66.0193 6.92339 68.0941 8.43461C70.1688 9.94583 71.5135 12.0334 72.1283 14.6972H66.6341C66.2243 13.4421 65.4815 12.4688 64.4057 11.7772C63.3299 11.06 61.9467 10.7014 60.2562 10.7014C57.5668 10.7014 55.492 11.5595 54.032 13.2756C52.5721 14.9661 51.8421 17.297 51.8421 20.2682C51.8421 23.2394 52.5592 25.5447 53.9936 27.184C55.4536 28.7976 57.4259 29.6045 59.9104 29.6045C62.3438 29.6045 64.1751 28.9513 65.4046 27.645C66.6597 26.3131 67.4153 24.5714 67.6714 22.4198H60.871V18.7314H72.6277V33.5234H68.0941L67.7099 29.9887C66.839 31.2694 65.7504 32.2555 64.4441 32.9471C63.1378 33.6387 61.4729 33.9845 59.4494 33.9845Z" fill="#515170"/>
<path d="M75.3724 33.5234V5.86041H80.2903V33.5234H75.3724Z" fill="#515170"/>
<path d="M92.5384 33.9845C90.6942 33.9845 89.0293 33.5618 87.5437 32.7166C86.0837 31.8713 84.9183 30.7059 84.0474 29.2203C83.2022 27.7091 82.7795 25.9673 82.7795 23.995C82.7795 22.0228 83.215 20.2938 84.0858 18.8082C84.9567 17.297 86.1221 16.1188 87.5821 15.2735C89.0677 14.4283 90.7326 14.0056 92.5768 14.0056C94.3954 14.0056 96.0347 14.4283 97.4947 15.2735C98.9803 16.1188 100.146 17.297 100.991 18.8082C101.862 20.2938 102.297 22.0228 102.297 23.995C102.297 25.9673 101.862 27.7091 100.991 29.2203C100.146 30.7059 98.9803 31.8713 97.4947 32.7166C96.0091 33.5618 94.357 33.9845 92.5384 33.9845ZM92.5384 29.7197C93.8191 29.7197 94.9333 29.2459 95.881 28.2982C96.8287 27.3248 97.3026 25.8905 97.3026 23.995C97.3026 22.0996 96.8287 20.678 95.881 19.7303C94.9333 18.757 93.8319 18.2703 92.5768 18.2703C91.2705 18.2703 90.1435 18.757 89.1958 19.7303C88.2737 20.678 87.8127 22.0996 87.8127 23.995C87.8127 25.8905 88.2737 27.3248 89.1958 28.2982C90.1435 29.2459 91.2577 29.7197 92.5384 29.7197Z" fill="#515170"/>
<path d="M112.65 33.9845C110.959 33.9845 109.474 33.7155 108.193 33.1776C106.912 32.6141 105.888 31.8457 105.119 30.8724C104.351 29.899 103.89 28.772 103.736 27.4913H108.692C108.846 28.2341 109.256 28.8745 109.922 29.4124C110.613 29.9247 111.497 30.1808 112.573 30.1808C113.649 30.1808 114.43 29.9631 114.916 29.5276C115.429 29.0922 115.685 28.5927 115.685 28.0292C115.685 27.2096 115.326 26.6589 114.609 26.3771C113.892 26.0698 112.893 25.7752 111.612 25.4935C110.793 25.3142 109.96 25.0964 109.115 24.8403C108.27 24.5842 107.488 24.264 106.771 23.8798C106.08 23.47 105.516 22.9577 105.081 22.3429C104.645 21.7026 104.428 20.9214 104.428 19.9993C104.428 18.3088 105.094 16.8872 106.425 15.7346C107.783 14.5819 109.678 14.0056 112.112 14.0056C114.366 14.0056 116.159 14.5307 117.491 15.5809C118.848 16.6311 119.655 18.0782 119.911 19.9224H115.262C114.98 18.5137 113.918 17.8093 112.073 17.8093C111.151 17.8093 110.434 17.9886 109.922 18.3472C109.435 18.7058 109.192 19.154 109.192 19.6919C109.192 20.2554 109.563 20.7037 110.306 21.0366C111.049 21.3696 112.035 21.677 113.264 21.9587C114.596 22.2661 115.813 22.6119 116.914 22.9961C118.041 23.3547 118.938 23.9054 119.604 24.6482C120.27 25.3654 120.603 26.4027 120.603 27.7603C120.628 28.9385 120.321 30.0015 119.681 30.9492C119.04 31.8969 118.118 32.6397 116.914 33.1776C115.71 33.7155 114.289 33.9845 112.65 33.9845Z" fill="#515170"/>
<path d="M130.915 33.9845C129.224 33.9845 127.738 33.7155 126.458 33.1776C125.177 32.6141 124.152 31.8457 123.384 30.8724C122.616 29.899 122.155 28.772 122.001 27.4913H126.957C127.111 28.2341 127.521 28.8745 128.187 29.4124C128.878 29.9247 129.762 30.1808 130.838 30.1808C131.913 30.1808 132.695 29.9631 133.181 29.5276C133.694 29.0922 133.95 28.5927 133.95 28.0292C133.95 27.2096 133.591 26.6589 132.874 26.3771C132.157 26.0698 131.158 25.7752 129.877 25.4935C129.058 25.3142 128.225 25.0964 127.38 24.8403C126.535 24.5842 125.753 24.264 125.036 23.8798C124.345 23.47 123.781 22.9577 123.346 22.3429C122.91 21.7026 122.692 20.9214 122.692 19.9993C122.692 18.3088 123.358 16.8872 124.69 15.7346C126.048 14.5819 127.943 14.0056 130.377 14.0056C132.631 14.0056 134.424 14.5307 135.756 15.5809C137.113 16.6311 137.92 18.0782 138.176 19.9224H133.527C133.245 18.5137 132.182 17.8093 130.338 17.8093C129.416 17.8093 128.699 17.9886 128.187 18.3472C127.7 18.7058 127.457 19.154 127.457 19.6919C127.457 20.2554 127.828 20.7037 128.571 21.0366C129.314 21.3696 130.3 21.677 131.529 21.9587C132.861 22.2661 134.078 22.6119 135.179 22.9961C136.306 23.3547 137.203 23.9054 137.869 24.6482C138.535 25.3654 138.868 26.4027 138.868 27.7603C138.893 28.9385 138.586 30.0015 137.946 30.9492C137.305 31.8969 136.383 32.6397 135.179 33.1776C133.975 33.7155 132.554 33.9845 130.915 33.9845Z" fill="#515170"/>
<path d="M142.672 41.976L147.091 32.2555H145.938L138.523 14.4667H143.863L149.204 27.8755L154.775 14.4667H160L147.897 41.976H142.672Z" fill="#515170"/>
<path d="M10.6098 30.4449L29.9941 11.0605L26.8065 7.87292L7.42212 27.2573L10.6098 30.4449Z" fill="#515170"/>
<path d="M18.2733 11.0605L10.6098 18.7241L7.42212 15.5365L15.0857 7.87292L18.2733 11.0605Z" fill="#515170"/>
<path d="M22.3305 30.4449L29.9941 22.7813L26.8065 19.5937L19.1429 27.2573L22.3305 30.4449Z" fill="#515170"/>
<path fill-rule="evenodd" clip-rule="evenodd" d="M0 37.8671V0H37.8671V37.8671H0ZM4.50799 4.50799H33.3591V33.3591H4.50799V4.50799Z" fill="#515170"/>
<path d="M354.153 5.96301V35.6325H358.496V5.96301H354.153Z" fill="#515170"/>
<path fill-rule="evenodd" clip-rule="evenodd" d="M314.889 36.1115C313.175 36.1115 311.744 35.7124 310.594 34.9141C310.468 34.8268 310.346 34.736 310.227 34.6418V35.6325H306.396V6.44194H310.77V18.9472C311.843 18.2572 313.141 17.9122 314.665 17.9122C316.315 17.9122 317.752 18.306 318.975 19.0936C320.199 19.8811 321.147 20.9614 321.817 22.3343C322.498 23.6966 322.839 25.2558 322.839 27.0118C322.839 28.736 322.504 30.2845 321.833 31.6574C321.173 33.0304 320.247 34.1159 319.055 34.9141C317.863 35.7124 316.474 36.1115 314.889 36.1115ZM310.61 24.266C310.355 25.0536 310.227 25.9688 310.227 27.0118C310.227 28.0548 310.355 28.9701 310.61 29.7577C310.866 30.5453 311.281 31.1572 311.855 31.5936C312.441 32.0299 313.218 32.2481 314.186 32.2481C315.123 32.2481 315.889 32.014 316.485 31.5457C317.081 31.0774 317.523 30.4495 317.81 29.6619C318.097 28.8637 318.241 27.9803 318.241 27.0118C318.241 26.054 318.092 25.1813 317.794 24.3937C317.496 23.5955 317.033 22.9622 316.405 22.494C315.788 22.015 314.995 21.7756 314.027 21.7756C313.122 21.7756 312.388 21.9937 311.823 22.4301C311.27 22.8665 310.866 23.4784 310.61 24.266Z" fill="#515170"/>
<path d="M299.53 25.4474V35.6325H303.873V24.2979C303.873 22.4141 303.367 20.8922 302.356 19.7321C301.356 18.5614 299.871 17.9761 297.902 17.9761C296.753 17.9761 295.704 18.2315 294.757 18.7423C293.89 19.2055 293.182 19.8421 292.635 20.652C292.226 19.9169 291.662 19.3123 290.942 18.8381C290.08 18.2634 288.973 17.9761 287.621 17.9761C286.44 17.9761 285.37 18.2368 284.412 18.7583C283.688 19.1568 283.076 19.6641 282.576 20.2801V18.3911H278.745V35.6325H283.119V25.1919C283.119 24.2021 283.391 23.3986 283.933 22.7813C284.487 22.1534 285.216 21.8394 286.12 21.8394C287.068 21.8394 287.807 22.1587 288.339 22.7973C288.882 23.4252 289.154 24.3086 289.154 25.4474V35.6325H293.496V25.1919C293.496 24.5321 293.618 23.952 293.863 23.4518C294.119 22.941 294.47 22.5472 294.917 22.2705C295.364 21.9831 295.891 21.8394 296.497 21.8394C297.444 21.8394 298.184 22.1587 298.716 22.7973C299.259 23.4252 299.53 24.3086 299.53 25.4474Z" fill="#515170"/>
<path d="M263.188 35.4569C264.039 35.9146 265.141 36.1434 266.493 36.1434C268.185 36.1434 269.584 35.7762 270.691 35.0419C271.216 34.6967 271.679 34.3009 272.08 33.8546V35.6325H275.911V18.3911H271.537V27.1396C271.537 28.2038 271.415 29.0659 271.17 29.7258C270.936 30.375 270.633 30.8699 270.26 31.2104C269.888 31.5404 269.489 31.7639 269.063 31.8809C268.637 31.998 268.238 32.0565 267.865 32.0565C266.94 32.0565 266.221 31.849 265.71 31.4339C265.21 31.0189 264.848 30.5027 264.625 29.8854C264.401 29.2681 264.268 28.6562 264.226 28.0495C264.183 27.4322 264.162 26.9267 264.162 26.5329V18.3911H259.756V28.0655C259.756 28.3528 259.777 28.8105 259.819 29.4384C259.862 30.0663 259.984 30.7634 260.187 31.5297C260.389 32.2854 260.724 33.0144 261.192 33.7168C261.671 34.4192 262.337 34.9993 263.188 35.4569Z" fill="#515170"/>
<path d="M324.755 18.3911V35.6325H329.129V26.8203C329.129 26.1604 329.22 25.5697 329.401 25.0482C329.582 24.5161 329.848 24.0585 330.199 23.6753C330.55 23.2815 330.981 22.9676 331.492 22.7334C332.003 22.4886 332.572 22.345 333.2 22.3024C333.839 22.2492 334.398 22.2971 334.877 22.4461V18.3911C334.355 18.3273 333.834 18.3166 333.312 18.3592C332.791 18.3911 332.285 18.4816 331.796 18.6306C331.306 18.769 330.854 18.9658 330.439 19.2213C329.896 19.5406 329.438 19.945 329.066 20.4346C328.889 20.6663 328.73 20.91 328.587 21.1656V18.3911H324.755Z" fill="#515170"/>
<path fill-rule="evenodd" clip-rule="evenodd" d="M344.019 36.1115C342.252 36.1115 340.693 35.7336 339.342 34.978C338.001 34.2117 336.947 33.1634 336.181 31.833C335.425 30.492 335.047 28.9595 335.047 27.2353C335.047 25.3516 335.42 23.7126 336.165 22.3183C336.91 20.9241 337.937 19.8439 339.246 19.0776C340.555 18.3007 342.061 17.9122 343.764 17.9122C345.573 17.9122 347.111 18.3379 348.377 19.1893C349.644 20.0408 350.581 21.2381 351.187 22.7813C351.794 24.3245 352.007 26.1391 351.826 28.2251H339.719C339.855 29.2599 340.176 30.1007 340.683 30.7475C341.385 31.6202 342.412 32.0565 343.764 32.0565C344.615 32.0565 345.344 31.8703 345.951 31.4978C346.558 31.1253 347.02 30.5878 347.34 29.8854L351.682 31.1306C351.033 32.7057 350.006 33.9297 348.601 34.8024C347.207 35.6751 345.679 36.1115 344.019 36.1115ZM346.685 22.8452C347.056 23.3493 347.305 24.0677 347.432 25.0004H339.834C340.003 24.204 340.286 23.5495 340.683 23.0367C341.385 22.1321 342.476 21.6798 343.955 21.6798C345.222 21.6798 346.132 22.0682 346.685 22.8452Z" fill="#515170"/>
<path d="M362.004 35.6325V5.96301H366.347V35.6325H362.004Z" fill="#515170"/>
<path fill-rule="evenodd" clip-rule="evenodd" d="M371.181 35.409C372.043 35.8773 373.091 36.1115 374.326 36.1115C375.816 36.1115 377.045 35.856 378.013 35.3452C378.785 34.934 379.514 34.3243 380.201 33.5161V35.6325H384V25.0961C384 24.3086 383.968 23.5955 383.904 22.9569C383.84 22.3183 383.638 21.6798 383.298 21.0412C382.691 19.8918 381.797 19.0829 380.616 18.6146C379.434 18.1463 378.083 17.9122 376.561 17.9122C374.485 17.9122 372.846 18.3592 371.644 19.2532C370.441 20.1472 369.622 21.3073 369.185 22.7334L373.112 23.9786C373.389 23.1911 373.873 22.643 374.565 22.3343C375.257 22.0257 375.922 21.8714 376.561 21.8714C377.71 21.8714 378.53 22.1108 379.019 22.5897C379.404 22.9658 379.637 23.5093 379.72 24.2201C378.984 24.3314 378.288 24.4372 377.63 24.5374C376.513 24.697 375.512 24.8673 374.629 25.0482C373.746 25.2292 372.985 25.4367 372.346 25.6709C371.42 26.0114 370.68 26.4371 370.127 26.948C369.584 27.4482 369.19 28.0282 368.946 28.6881C368.701 29.3479 368.578 30.077 368.578 30.8752C368.578 31.833 368.797 32.7111 369.233 33.5093C369.68 34.2969 370.329 34.9301 371.181 35.409ZM377.263 32.28C376.72 32.5567 376.05 32.6951 375.252 32.6951C374.751 32.6951 374.32 32.6206 373.958 32.4716C373.597 32.3226 373.315 32.1097 373.112 31.833C372.921 31.5457 372.825 31.2051 372.825 30.8113C372.825 30.524 372.884 30.2632 373.001 30.0291C373.128 29.7949 373.32 29.5821 373.575 29.3905C373.841 29.1883 374.187 29.002 374.613 28.8318C374.986 28.6934 375.417 28.5657 375.906 28.4486C376.396 28.3315 377.04 28.2038 377.838 28.0655C378.351 27.9697 378.965 27.8608 379.68 27.7387C379.67 28.0422 379.652 28.3853 379.626 28.7679C379.594 29.3852 379.466 29.928 379.243 30.3962C379.126 30.641 378.902 30.9443 378.572 31.3062C378.253 31.6681 377.817 31.9927 377.263 32.28Z" fill="#515170"/>
<path fill-rule="evenodd" clip-rule="evenodd" d="M235.792 18.5155H224V23.6507C224 31.3185 230.216 37.5345 237.884 37.5345C245.552 37.5345 251.768 31.3185 251.768 23.6507V18.5155H239.596L239.596 10.3374C239.596 7.0812 236.956 4.44153 233.7 4.44153C230.443 4.44153 227.804 7.0812 227.804 10.3374L231.608 10.3374C231.608 9.18197 232.544 8.24532 233.7 8.24532C234.855 8.24532 235.792 9.18198 235.792 10.3374L235.792 18.5155ZM235.792 22.3193L235.792 29.5465L239.596 29.5465L239.596 22.3193H247.964V23.6507C247.964 29.2177 243.451 33.7307 237.884 33.7307C232.317 33.7307 227.804 29.2177 227.804 23.6507V22.3193H235.792Z" fill="#515170"/>
<path d="M454.241 4.40302H448.553C448.248 4.40302 448 4.65053 448 4.95585V15.6736L454.241 4.40302Z" fill="#515170"/>
<path d="M448 19.1209C448.018 19.1217 448.036 19.1221 448.054 19.1221H456.726C457.405 19.1221 457.938 19.702 457.88 20.3771L457.13 29.1282C457.023 30.3718 458.693 30.8786 459.298 29.7863L468.309 13.513C468.735 12.7423 468.177 11.7972 467.295 11.7972H458.623C457.944 11.7972 457.411 11.2173 457.469 10.5422L457.995 4.40302H466.746C474.81 4.40302 478.424 14.5455 472.188 19.6729L467.313 23.6811C466.993 23.9437 466.93 24.409 467.169 24.7474L475.581 36.7019C475.839 37.0682 475.577 37.5729 475.129 37.5729H448.553C448.248 37.5729 448 37.3254 448 37.0201V19.1209Z" fill="#515170"/>
<path d="M542.731 22.3592V30.7408H547.361V21.3305C547.361 20.2211 547.119 19.2528 546.635 18.4257C546.171 17.5784 545.505 16.9227 544.638 16.4589C543.77 15.9747 542.762 15.7325 541.612 15.7325C540.482 15.7325 539.483 15.9747 538.616 16.4589C538.386 16.582 538.169 16.7197 537.966 16.8714C537.856 16.9532 537.75 17.0393 537.648 17.1295V9.37848H533.018V30.7408H537.648V22.3592C537.648 21.855 537.759 21.4112 537.981 21.0279C538.203 20.6243 538.505 20.3217 538.888 20.1201C539.272 19.8982 539.716 19.7873 540.22 19.7873C540.946 19.7873 541.541 20.0294 542.005 20.5134C542.489 20.9774 542.731 21.5926 542.731 22.3592Z" fill="#515170"/>
<path fill-rule="evenodd" clip-rule="evenodd" d="M491.295 21.9357V30.7408H486.544V9.37848H495.258C496.671 9.37848 497.911 9.65085 498.98 10.1953C500.049 10.7198 500.887 11.4562 501.492 12.4042C502.097 13.3522 502.399 14.4417 502.399 15.6721C502.399 16.9227 502.097 18.0221 501.492 18.9702C500.887 19.8982 500.04 20.6243 498.95 21.1488C498.342 21.4414 497.676 21.6525 496.948 21.7818L503.792 30.7408H498.164L491.792 21.9357H491.295ZM491.295 18.4257H494.684C495.632 18.4257 496.358 18.1836 496.862 17.6993C497.387 17.2153 497.649 16.5596 497.649 15.7325C497.649 14.9662 497.397 14.3308 496.893 13.8265C496.388 13.322 495.662 13.0699 494.714 13.0699H491.295V18.4257Z" fill="#515170"/>
<path fill-rule="evenodd" clip-rule="evenodd" d="M506.847 30.1054C508.098 30.7508 509.52 31.0736 511.113 31.0736C512.344 31.0736 513.473 30.8617 514.502 30.4382C515.531 30.0144 516.409 29.379 517.135 28.5319L514.593 25.9902C514.149 26.4944 513.635 26.8777 513.05 27.1401C512.465 27.382 511.809 27.5032 511.083 27.5032C510.296 27.5032 509.611 27.3417 509.025 27.0189C508.461 26.6761 508.017 26.2021 507.694 25.5969C507.592 25.3868 507.508 25.1633 507.441 24.9261L517.982 24.901C518.063 24.5176 518.113 24.1848 518.133 23.9025C518.147 23.7969 518.158 23.6941 518.168 23.5934C518.172 23.5434 518.176 23.4943 518.179 23.4457C518.184 23.3726 518.188 23.3008 518.19 23.2303L518.192 23.1526L518.193 23.0551C518.193 21.6228 517.871 20.352 517.225 19.2425C516.6 18.1331 515.733 17.2658 514.623 16.6403C513.514 16.0152 512.233 15.7023 510.78 15.7023C509.288 15.7023 507.946 16.0351 506.756 16.7008C505.566 17.3665 504.618 18.2845 503.912 19.4544C503.226 20.6041 502.883 21.9155 502.883 23.388C502.883 24.8605 503.236 26.1818 503.942 27.3517C504.648 28.5216 505.617 29.4397 506.847 30.1054ZM507.442 21.7481C507.465 21.6693 507.489 21.5921 507.515 21.5165C507.56 21.3891 507.609 21.2663 507.664 21.1488C507.967 20.5436 508.38 20.0796 508.904 19.757C509.449 19.4139 510.085 19.2425 510.811 19.2425C511.496 19.2425 512.071 19.394 512.536 19.6966L512.598 19.7338L512.66 19.7735C512.712 19.8083 512.763 19.845 512.812 19.8834C512.86 19.9209 512.907 19.9603 512.952 20.0013C513.234 20.2561 513.458 20.5782 513.624 20.9674C513.726 21.1953 513.808 21.4493 513.871 21.7297L507.442 21.7481Z" fill="#515170"/>
<path d="M526.329 31.0736C524.816 31.0736 523.444 30.7408 522.213 30.0751C520.983 29.4095 520.015 28.4914 519.309 27.3215C518.603 26.1516 518.25 24.8402 518.25 23.388C518.25 21.9155 518.603 20.6041 519.309 19.4544C520.035 18.2845 521.013 17.3665 522.244 16.7008C523.475 16.0351 524.856 15.7023 526.389 15.7023C527.539 15.7023 528.588 15.9042 529.536 16.3075C530.019 16.4989 530.475 16.7405 530.903 17.0323C531.332 17.3252 531.734 17.6685 532.108 18.0626L529.143 21.0279C528.8 20.6446 528.396 20.3622 527.932 20.1806C527.723 20.095 527.498 20.0297 527.257 19.9843C527.147 19.9635 527.034 19.9471 526.918 19.9349C526.799 19.9222 526.675 19.9141 526.548 19.9106C526.496 19.909 526.443 19.9082 526.389 19.9082C526.226 19.9082 526.066 19.9174 525.912 19.9355L525.828 19.9463L525.777 19.9538C525.723 19.9622 525.669 19.9719 525.616 19.9824C525.253 20.0553 524.916 20.1819 524.604 20.3622C524.1 20.6446 523.696 21.0479 523.394 21.5724C523.111 22.0769 522.97 22.6718 522.97 23.3577C522.97 24.0436 523.111 24.6488 523.394 25.1731C523.696 25.6975 524.11 26.1111 524.634 26.4137C525.158 26.7163 525.744 26.8677 526.389 26.8677C526.994 26.8677 527.529 26.7668 527.993 26.5651C528.477 26.3432 528.891 26.0406 529.233 25.6573L532.169 28.6226C531.402 29.4294 530.534 30.0446 529.566 30.4684C528.598 30.8717 527.519 31.0736 526.329 31.0736Z" fill="#515170"/>
<path fill-rule="evenodd" clip-rule="evenodd" d="M555.266 31.0434C553.915 31.0434 552.704 30.7106 551.635 30.0446C550.586 29.379 549.749 28.4714 549.124 27.3215C548.519 26.1718 548.216 24.8605 548.216 23.388C548.216 21.9155 548.519 20.6041 549.124 19.4544C549.749 18.3045 550.586 17.397 551.635 16.731C552.704 16.0654 553.915 15.7325 555.266 15.7325C556.255 15.7325 557.142 15.9242 557.929 16.3075C558.458 16.5588 558.922 16.8752 559.321 17.2563V16.0351H563.859V30.7408H559.321V29.5493C559.048 29.8071 558.742 30.0354 558.402 30.2344C558.34 30.2708 558.276 30.3065 558.212 30.341C558.13 30.385 558.045 30.4274 557.959 30.4684C557.152 30.8517 556.255 31.0434 555.266 31.0434ZM556.204 26.8677C557.193 26.8677 557.989 26.5449 558.594 25.8995C559.2 25.2338 559.503 24.3964 559.503 23.388C559.503 23.0449 559.467 22.722 559.396 22.4194C559.325 22.1168 559.22 21.8345 559.079 21.5724C558.816 21.0479 558.433 20.6446 557.929 20.3622C557.657 20.1919 557.359 20.0696 557.035 19.9951C556.784 19.9371 556.517 19.9082 556.235 19.9082C555.912 19.9082 555.607 19.946 555.32 20.0216C555.145 20.0677 554.976 20.1279 554.814 20.2022C554.71 20.2497 554.609 20.3031 554.51 20.3622C554.025 20.6446 553.632 21.0479 553.33 21.5724C553.047 22.0969 552.906 22.7021 552.906 23.388C552.906 24.0536 553.047 24.6488 553.33 25.1731C553.612 25.6975 554.006 26.1111 554.51 26.4137C555.014 26.7163 555.579 26.8677 556.204 26.8677Z" fill="#515170"/>
<path d="M570.538 16.0351H565.909V30.7408H570.538V22.6618C570.538 21.7135 570.76 21.0077 571.204 20.5436C571.668 20.0596 572.283 19.8175 573.05 19.8175C573.433 19.8175 573.776 19.878 574.079 19.9992C574.381 20.1201 574.633 20.2915 574.835 20.5134L577.588 17.0336C577.185 16.5899 576.711 16.2673 576.166 16.0654C575.642 15.8435 575.027 15.7325 574.32 15.7325C572.707 15.7325 571.446 16.2068 570.538 17.1548V16.0351Z" fill="#515170"/>
<path fill-rule="evenodd" clip-rule="evenodd" d="M583.431 37.337C581.817 37.337 580.395 37.0546 579.165 36.4896C577.954 35.9452 576.996 35.1686 576.29 34.1598L579.134 31.3155C579.659 31.9409 580.244 32.4149 580.889 32.7378C581.555 33.0604 582.352 33.2218 583.28 33.2218C584.43 33.2218 585.327 32.9394 585.973 32.3747C586.638 31.8097 586.971 31.0129 586.971 29.9842V29.0553C586.656 29.3074 586.303 29.5261 585.912 29.7118C585.105 30.0951 584.208 30.2868 583.219 30.2868C581.867 30.2868 580.667 29.9642 579.618 29.3185C578.569 28.6731 577.742 27.7955 577.137 26.6861C576.532 25.5766 576.229 24.3462 576.229 22.9947C576.229 21.6228 576.532 20.3925 577.137 19.303C577.742 18.1936 578.569 17.3262 579.618 16.7008C580.667 16.0554 581.867 15.7325 583.219 15.7325C584.228 15.7325 585.126 15.9242 585.912 16.3075C585.984 16.3399 586.055 16.3736 586.125 16.4087C586.468 16.582 586.781 16.7869 587.062 17.0234V16.0351H591.601V29.8632C591.601 31.3762 591.248 32.6873 590.542 33.7967C589.835 34.9062 588.867 35.7735 587.637 36.3989C586.406 37.0244 585.005 37.337 583.431 37.337ZM584.097 26.1718C584.742 26.1718 585.297 26.0304 585.761 25.748C585.88 25.6786 585.991 25.6036 586.096 25.5232C586.416 25.2767 586.667 24.9784 586.85 24.6286C586.928 24.4844 586.995 24.3352 587.049 24.1805C587.12 23.9799 587.172 23.7702 587.204 23.5515C587.23 23.372 587.243 23.1863 587.243 22.9947C587.243 22.3895 587.112 21.8447 586.85 21.3607C586.608 20.8765 586.245 20.4932 585.761 20.2108C585.297 19.9284 584.742 19.7873 584.097 19.7873C583.906 19.7873 583.722 19.8005 583.545 19.8267L583.452 19.8418L583.37 19.8569C583.194 19.8923 583.025 19.9411 582.863 20.0035C582.773 20.0383 582.684 20.0774 582.598 20.1206C582.542 20.149 582.487 20.1789 582.433 20.2108C581.948 20.4932 581.575 20.8765 581.313 21.3607C581.176 21.6129 581.075 21.8814 581.01 22.1665C580.95 22.4286 580.919 22.7047 580.919 22.9947C580.919 23.5594 581.051 24.0938 581.313 24.5984C581.575 25.0824 581.938 25.4657 582.402 25.748C582.662 25.8997 582.946 26.0109 583.253 26.0811C583.517 26.1416 583.798 26.1718 584.097 26.1718Z" fill="#515170"/>
<path fill-rule="evenodd" clip-rule="evenodd" d="M596.653 30.1054C597.904 30.7508 599.326 31.0736 600.92 31.0736C602.15 31.0736 603.28 30.8617 604.308 30.4382C605.337 30.0144 606.215 29.379 606.941 28.5319L604.399 25.9902C603.955 26.4944 603.441 26.8777 602.856 27.1401C602.271 27.382 601.615 27.5032 600.889 27.5032C600.103 27.5032 599.417 27.3417 598.832 27.0189C598.429 26.7743 598.087 26.4628 597.808 26.0844C597.763 26.0242 597.72 25.9621 597.679 25.8984C597.616 25.802 597.556 25.7013 597.501 25.5969C597.399 25.3868 597.314 25.1633 597.247 24.9261L607.788 24.901C607.828 24.7117 607.861 24.5347 607.886 24.37C607.911 24.201 607.929 24.0453 607.94 23.9025C607.954 23.7958 607.965 23.6916 607.975 23.5901C607.991 23.4033 608 23.2249 608 23.0551C608 21.6228 607.677 20.352 607.032 19.2425C606.406 18.1331 605.539 17.2658 604.43 16.6403C603.32 16.0152 602.039 15.7023 600.587 15.7023C599.094 15.7023 597.753 16.0351 596.562 16.7008C595.372 17.3665 594.424 18.2845 593.718 19.4544C593.033 20.6041 592.689 21.9155 592.689 23.388C592.689 24.8605 593.042 26.1818 593.748 27.3517C594.455 28.5216 595.423 29.4397 596.653 30.1054ZM597.249 21.7481C597.309 21.5359 597.383 21.3359 597.47 21.1488C597.643 20.8033 597.851 20.5039 598.097 20.2507C598.182 20.1619 598.273 20.0788 598.368 20.0013C598.477 19.9125 598.591 19.831 598.711 19.757C599.256 19.4139 599.891 19.2425 600.617 19.2425C601.303 19.2425 601.878 19.394 602.342 19.6966C602.527 19.8045 602.694 19.933 602.844 20.0823C603.086 20.3234 603.282 20.6184 603.431 20.9674C603.532 21.1953 603.614 21.4493 603.677 21.7297L597.249 21.7481Z" fill="#515170"/>
<path fill-rule="evenodd" clip-rule="evenodd" d="M711.981 19.4457C712.764 23.1828 712.402 26.6587 711.135 29.5574L711.203 29.5563C710.117 32.5267 706.507 38.7415 698.007 40.5237C697.684 40.5916 697.361 40.6453 697.039 40.6856C696.228 40.8049 695.387 40.8665 694.518 40.8665C684.452 40.8665 674.555 32.5804 672.412 22.359C671.392 17.4902 672.314 13.0605 674.649 9.75634C675.733 7.66922 681.421 2.60746 686.012 1.62388C686.136 1.5973 686.255 1.57646 686.37 1.56112C687.583 1.26557 688.878 1.10956 690.24 1.10956C700.124 1.10956 709.858 9.31894 711.981 19.4457ZM708.52 18.5889C710.187 26.5389 705.245 32.9837 697.482 32.9837C689.719 32.9837 682.075 26.5389 680.409 18.5889C678.742 10.6389 683.684 4.19416 691.447 4.19416C699.21 4.19416 706.854 10.6389 708.52 18.5889ZM697.009 28.5281C702.755 28.5281 706.436 23.8715 705.232 18.1273C704.028 12.383 698.394 7.72639 692.648 7.72639C686.902 7.72639 683.22 12.383 684.425 18.1273C685.629 23.8715 691.263 28.5281 697.009 28.5281ZM702.127 17.6962C702.883 21.2997 700.51 24.2209 696.828 24.2209C693.147 24.2209 689.549 21.2997 688.794 17.6962C688.039 14.0928 690.411 11.1715 694.093 11.1715C697.775 11.1715 701.372 14.0928 702.127 17.6962ZM698.751 17.6963C699.124 19.4748 697.953 20.9165 696.136 20.9165C694.319 20.9165 692.543 19.4748 692.171 17.6963C691.798 15.9179 692.969 14.4761 694.786 14.4761C696.603 14.4761 698.378 15.9179 698.751 17.6963Z" fill="#515170"/>
<path d="M738.615 30.0988C738.615 30.3275 738.8 30.5129 739.029 30.5129H742.177C742.406 30.5129 742.591 30.3275 742.591 30.0988V14.9791H739.029C738.8 14.9791 738.615 15.1645 738.615 15.3933V30.0988Z" fill="#515170"/>
<path d="M738.743 12.5189C739.124 12.9194 739.706 13.1196 740.488 13.1196C741.27 13.1196 741.842 12.9194 742.205 12.5189C742.567 12.0993 742.748 11.5844 742.748 10.9741C742.748 10.3257 742.567 9.80119 742.205 9.40068C741.842 9.00018 741.27 8.79993 740.488 8.79993C739.706 8.79993 739.124 9.00018 738.743 9.40068C738.381 9.80119 738.199 10.3257 738.199 10.9741C738.199 11.5844 738.381 12.0993 738.743 12.5189Z" fill="#515170"/>
<path fill-rule="evenodd" clip-rule="evenodd" d="M732.347 23.2467C731.126 23.8188 729.639 24.1049 727.884 24.1049H724.737V30.0988C724.737 30.3275 724.552 30.5129 724.323 30.5129H721.089C720.86 30.5129 720.675 30.3275 720.675 30.0988V9.90064C720.675 9.67192 720.86 9.48651 721.089 9.48651H724.323C724.368 9.48651 724.411 9.49359 724.451 9.50669C724.491 9.49359 724.535 9.48651 724.579 9.48651H727.884C729.639 9.48651 731.126 9.77258 732.347 10.3447C733.586 10.9169 734.531 11.737 735.179 12.805C735.827 13.8539 736.152 15.1031 736.152 16.5525V17.0102C736.152 18.4597 735.827 19.7184 735.179 20.7864C734.531 21.8354 733.586 22.6554 732.347 23.2467ZM730.287 13.4915C729.734 13.1673 729.047 13.0052 728.227 13.0052H724.737V20.5862H728.227C729.047 20.5862 729.734 20.4241 730.287 20.0998C730.859 19.7756 731.288 19.3274 731.574 18.7553C731.88 18.1832 732.032 17.5252 732.032 16.7814C732.032 16.0376 731.88 15.3796 731.574 14.8075C731.288 14.2353 730.859 13.7967 730.287 13.4915Z" fill="#515170"/>
<path d="M746.158 30.5129C745.929 30.5129 745.744 30.3275 745.744 30.0988V15.3933C745.744 15.1645 745.929 14.9791 746.158 14.9791H748.476C748.705 14.9791 748.891 15.1645 748.891 15.3933V18.8071C748.983 18.4087 749.097 18.0386 749.234 17.6968C749.653 16.6288 750.273 15.8278 751.093 15.2938C751.933 14.7598 752.972 14.4928 754.212 14.4928H754.383C756.233 14.4928 757.635 15.0936 758.588 16.2951C759.542 17.4775 760.019 19.2512 760.019 21.616V30.0988C760.019 30.3275 759.833 30.5129 759.605 30.5129H756.457C756.228 30.5129 756.042 30.3275 756.042 30.0988V21.2728C756.042 20.3192 755.766 19.5468 755.213 18.9556C754.679 18.3643 753.935 18.0687 752.981 18.0687C752.009 18.0687 751.217 18.3739 750.607 18.9842C750.016 19.5754 749.72 20.3764 749.72 21.3872V30.0988C749.72 30.3275 749.535 30.5129 749.306 30.5129H746.158Z" fill="#515170"/>
<path fill-rule="evenodd" clip-rule="evenodd" d="M774.85 23.2467C773.629 23.8188 772.142 24.1049 770.387 24.1049H767.24V30.0988C767.24 30.3275 767.055 30.5129 766.826 30.5129H763.592C763.364 30.5129 763.178 30.3275 763.178 30.0988V9.90064C763.178 9.67192 763.364 9.48651 763.592 9.48651H766.826C766.871 9.48651 766.914 9.49359 766.954 9.50669C766.995 9.49359 767.038 9.48651 767.082 9.48651H770.387C772.142 9.48651 773.629 9.77258 774.85 10.3447C776.09 10.9169 777.034 11.737 777.682 12.805C778.331 13.8539 778.655 15.1031 778.655 16.5525V17.0102C778.655 18.4597 778.331 19.7184 777.682 20.7864C777.034 21.8354 776.09 22.6554 774.85 23.2467ZM772.79 13.4915C772.237 13.1673 771.551 13.0052 770.731 13.0052H767.24V20.5862H770.731C771.551 20.5862 772.237 20.4241 772.79 20.0998C773.362 19.7756 773.792 19.3274 774.078 18.7553C774.383 18.1832 774.535 17.5252 774.535 16.7814C774.535 16.0376 774.383 15.3796 774.078 14.8075C773.792 14.2353 773.362 13.7967 772.79 13.4915Z" fill="#515170"/>
<path fill-rule="evenodd" clip-rule="evenodd" d="M787.506 31.0565C786.132 31.0565 784.921 30.8372 783.873 30.3985C782.824 29.9599 781.937 29.3686 781.212 28.6249C780.487 27.862 779.934 27.0038 779.553 26.0502C779.19 25.0966 779.009 24.1049 779.009 23.075V22.4743C779.009 21.4063 779.2 20.3955 779.581 19.4419C779.982 18.4692 780.545 17.611 781.269 16.8672C782.013 16.1043 782.909 15.5131 783.958 15.0936C785.007 14.6549 786.19 14.4356 787.506 14.4356C788.822 14.4356 790.004 14.6549 791.053 15.0936C792.102 15.5131 792.989 16.1043 793.713 16.8672C794.457 17.611 795.02 18.4692 795.401 19.4419C795.783 20.3955 795.973 21.4063 795.973 22.4743V23.075C795.973 24.1049 795.783 25.0966 795.401 26.0502C795.039 27.0038 794.495 27.862 793.771 28.6249C793.046 29.3686 792.159 29.9599 791.11 30.3985C790.061 30.8372 788.86 31.0565 787.506 31.0565ZM787.506 27.6522C788.478 27.6522 789.298 27.4424 789.966 27.0228C790.633 26.5842 791.139 26.0025 791.482 25.2778C791.825 24.534 791.997 23.6948 791.997 22.7603C791.997 21.8068 791.816 20.9676 791.453 20.2429C791.11 19.4991 790.595 18.9174 789.909 18.4978C789.241 18.0592 788.44 17.8399 787.506 17.8399C786.571 17.8399 785.761 18.0592 785.074 18.4978C784.407 18.9174 783.892 19.4991 783.529 20.2429C783.167 20.9676 782.986 21.8068 782.986 22.7603C782.986 23.6948 783.157 24.534 783.501 25.2778C783.863 26.0025 784.378 26.5842 785.045 27.0228C785.713 27.4424 786.533 27.6522 787.506 27.6522Z" fill="#515170"/>
<path d="M798.769 30.0988C798.769 30.3275 798.954 30.5129 799.183 30.5129H802.331C802.56 30.5129 802.745 30.3275 802.745 30.0988V14.9791H799.183C798.954 14.9791 798.769 15.1645 798.769 15.3933V30.0988Z" fill="#515170"/>
<path d="M798.897 12.5189C799.278 12.9194 799.86 13.1196 800.642 13.1196C801.424 13.1196 801.996 12.9194 802.358 12.5189C802.721 12.0993 802.902 11.5844 802.902 10.9741C802.902 10.3257 802.721 9.80119 802.358 9.40068C801.996 9.00018 801.424 8.79993 800.642 8.79993C799.86 8.79993 799.278 9.00018 798.897 9.40068C798.534 9.80119 798.353 10.3257 798.353 10.9741C798.353 11.5844 798.534 12.0993 798.897 12.5189Z" fill="#515170"/>
<path d="M806.312 30.5129C806.083 30.5129 805.898 30.3275 805.898 30.0988V15.3933C805.898 15.1645 806.083 14.9791 806.312 14.9791H808.63C808.859 14.9791 809.044 15.1645 809.044 15.3933V18.8071C809.136 18.4086 809.251 18.0386 809.388 17.6968C809.807 16.6288 810.427 15.8278 811.247 15.2938C812.086 14.7598 813.126 14.4928 814.365 14.4928H814.537C816.387 14.4928 817.789 15.0936 818.742 16.2951C819.696 17.4775 820.173 19.2512 820.173 21.616V30.0988C820.173 30.3275 819.987 30.5129 819.758 30.5129H816.61C816.382 30.5129 816.196 30.3275 816.196 30.0988V21.2728C816.196 20.3192 815.92 19.5468 815.367 18.9556C814.833 18.3643 814.089 18.0687 813.135 18.0687C812.163 18.0687 811.371 18.3739 810.761 18.9842C810.17 19.5754 809.874 20.3764 809.874 21.3872V30.0988C809.874 30.3275 809.689 30.5129 809.46 30.5129H806.312Z" fill="#515170"/>
<path d="M826.221 30.1697C827.156 30.532 828.338 30.7132 829.769 30.7132H831.586C831.815 30.7132 832 30.5278 832 30.2991V27.723C832 27.4943 831.815 27.3089 831.586 27.3089H829.568C828.805 27.3089 828.214 27.1087 827.795 26.7082C827.394 26.2886 827.194 25.6974 827.194 24.9345L827.208 17.8971H831.586C831.815 17.8971 832 17.7117 832 17.4829V15.3933C832 15.1645 831.815 14.9791 831.586 14.9791H827.214L827.222 11.0172C827.222 10.7881 827.037 10.6022 826.808 10.6022H823.917C823.688 10.6022 823.503 10.7871 823.503 11.0155L823.495 14.9791H821.429C821.2 14.9791 821.015 15.1645 821.015 15.3933V17.4829C821.015 17.7117 821.2 17.8971 821.429 17.8971H823.489L823.475 24.677C823.475 26.1837 823.704 27.3852 824.162 28.2816C824.619 29.1589 825.306 29.7882 826.221 30.1697Z" fill="#515170"/>
<path d="M950.472 32.3412C952.094 33.1405 954.035 33.5402 956.296 33.5402C958.671 33.5402 960.715 33.0948 962.428 32.2041C964.141 31.3134 965.489 30.1258 966.471 28.6413C967.453 27.1568 968.058 25.5239 968.286 23.7425H963.388C963.113 25.4097 962.326 26.7115 961.024 27.6478C959.745 28.5614 958.169 29.0182 956.296 29.0182C955.017 29.0182 953.887 28.8012 952.905 28.3673C951.945 27.9333 951.135 27.3281 950.472 26.5516C949.81 25.7523 949.308 24.8273 948.965 23.7767C948.645 22.7262 948.485 21.5842 948.485 20.351C948.485 19.072 948.645 17.9072 948.965 16.8567C949.308 15.8061 949.799 14.8926 950.438 14.1161C951.078 13.3395 951.877 12.7457 952.836 12.3347C953.795 11.9007 954.892 11.6838 956.125 11.6838C957.335 11.6838 958.42 11.8893 959.379 12.3004C960.339 12.6887 961.127 13.2825 961.743 14.0818C962.383 14.8583 962.794 15.8175 962.976 16.9594H967.875C967.67 14.9953 967.065 13.2825 966.06 11.8208C965.055 10.3363 963.707 9.19437 962.017 8.39502C960.35 7.57284 958.386 7.16174 956.125 7.16174C953.955 7.16174 952.071 7.53858 950.472 8.29225C948.897 9.02308 947.595 10.0051 946.567 11.2384C945.539 12.4717 944.774 13.842 944.272 15.3493C943.792 16.8567 943.552 18.3869 943.552 19.9399V20.6935C943.552 22.0867 943.792 23.5369 944.272 25.0443C944.751 26.5516 945.494 27.9447 946.498 29.2237C947.526 30.5027 948.851 31.5418 950.472 32.3412Z" fill="#515170"/>
<path fill-rule="evenodd" clip-rule="evenodd" d="M980.99 30.6283C981.225 30.2291 981.42 29.7886 981.572 29.3069V32.8893H985.341V21.3444C985.341 19.6087 985.01 18.2041 984.347 17.1307C983.708 16.0573 982.749 15.2694 981.47 14.767C980.214 14.2645 978.626 14.0133 976.708 14.0133C976.091 14.0133 975.429 14.0247 974.721 14.0475C974.036 14.0475 973.362 14.0704 972.7 14.1161C972.037 14.1617 971.444 14.2074 970.918 14.2531V18.2955C971.558 18.2498 972.277 18.2156 973.077 18.1927C973.899 18.147 974.71 18.1128 975.509 18.0899C976.308 18.0671 976.993 18.0557 977.564 18.0557C978.661 18.0557 979.471 18.3183 979.997 18.8436C980.522 19.3689 980.785 20.1683 980.785 21.2417V21.4129H976.982C975.338 21.4129 973.899 21.6299 972.665 22.0638C971.455 22.4978 970.507 23.1487 969.822 24.0165C969.16 24.8844 968.829 26.0035 968.829 27.3738C968.829 28.6299 969.103 29.7033 969.651 30.594C970.222 31.4847 971.01 32.1699 972.015 32.6495C973.042 33.1291 974.23 33.3689 975.577 33.3689C976.879 33.3689 977.975 33.1405 978.866 32.6837C979.78 32.2041 980.488 31.519 980.99 30.6283ZM980.134 28.4015C980.522 27.8077 980.739 27.0084 980.785 26.0035V24.2563H976.913C975.817 24.2563 974.972 24.5304 974.378 25.0785C973.807 25.6038 973.522 26.289 973.522 27.134C973.522 27.979 973.807 28.6642 974.378 29.1894C974.972 29.7147 975.817 29.9774 976.913 29.9774C977.576 29.9774 978.181 29.8632 978.729 29.6348C979.3 29.3836 979.768 28.9725 980.134 28.4015Z" fill="#515170"/>
<path d="M996.985 33.5402C995.363 33.5402 993.959 33.2661 992.771 32.718C991.606 32.1699 990.624 31.439 989.825 30.5255C989.048 29.612 988.466 28.5842 988.078 27.4423C987.689 26.3004 987.495 25.1356 987.495 23.948V23.2971C987.495 22.041 987.689 20.842 988.078 19.7001C988.489 18.5353 989.094 17.5076 989.893 16.6169C990.693 15.7033 991.675 14.9839 992.839 14.4586C994.027 13.9105 995.397 13.6364 996.95 13.6364C998.572 13.6364 1000.02 13.9562 1001.3 14.5957C1002.58 15.2123 1003.6 16.0802 1004.35 17.1992C1005.13 18.3183 1005.56 19.6201 1005.65 21.1046H1001.03C1000.91 20.1454 1000.5 19.3461 999.794 18.7066C999.109 18.0671 998.161 17.7474 996.95 17.7474C995.9 17.7474 995.021 17.9986 994.313 18.501C993.627 19.0035 993.114 19.7001 992.771 20.5908C992.428 21.4586 992.257 22.4635 992.257 23.6054C992.257 24.7017 992.417 25.6952 992.737 26.5859C993.079 27.4766 993.593 28.1731 994.278 28.6756C994.986 29.178 995.888 29.4292 996.985 29.4292C997.807 29.4292 998.515 29.2808 999.109 28.9839C999.702 28.687 1000.17 28.2759 1000.51 27.7506C1000.88 27.2253 1001.11 26.6315 1001.2 25.9692H1005.82C1005.73 27.4766 1005.29 28.8012 1004.49 29.9431C1003.71 31.0622 1002.67 31.9415 1001.37 32.581C1000.09 33.2204 998.629 33.5402 996.985 33.5402Z" fill="#515170"/>
<path d="M1011.76 32.4782C1012.88 32.9121 1014.3 33.1291 1016.01 33.1291H1018.68V29.0524H1015.77C1014.86 29.0524 1014.15 28.8126 1013.65 28.333C1013.17 27.8306 1012.93 27.1226 1012.93 26.209L1012.94 17.7816H1018.68V14.2873H1012.95L1012.96 9.04592H1008.51L1008.5 14.2873H1005.53V17.7816H1008.49L1008.47 25.9007C1008.47 27.7049 1008.75 29.1438 1009.3 30.2172C1009.84 31.2677 1010.67 32.0214 1011.76 32.4782Z" fill="#515170"/>
<path d="M1027.3 33.4717C1025.16 33.4717 1023.49 32.7637 1022.3 31.3477C1021.14 29.9317 1020.55 27.8306 1020.55 25.0443V14.2531H1025.32V25.4554C1025.32 26.5973 1025.64 27.5108 1026.28 28.196C1026.92 28.8583 1027.78 29.1894 1028.88 29.1894C1029.98 29.1894 1030.87 28.8354 1031.55 28.1275C1032.26 27.4195 1032.61 26.4602 1032.61 25.2498V14.2531H1037.38V32.8893H1033.61V28.5574C1033.51 28.9515 1033.4 29.322 1033.26 29.6691C1032.78 30.9252 1032.07 31.873 1031.11 32.5124C1030.15 33.1519 1028.95 33.4717 1027.51 33.4717H1027.3Z" fill="#515170"/>
<path d="M1041.85 31.8615C1043.31 32.935 1045.32 33.4717 1047.88 33.4717C1049.53 33.4717 1050.95 33.2204 1052.16 32.718C1053.37 32.2155 1054.31 31.519 1054.97 30.6283C1055.66 29.7147 1056 28.6413 1056 27.408C1056 25.7408 1055.37 24.4162 1054.12 23.4342C1052.88 22.4521 1051.17 21.8469 1048.98 21.6185L1047.33 21.4472C1046.33 21.333 1045.6 21.116 1045.14 20.7963C1044.71 20.4766 1044.49 20.0198 1044.49 19.426C1044.49 18.8094 1044.76 18.3069 1045.31 17.9187C1045.86 17.5304 1046.64 17.3363 1047.64 17.3363C1048.76 17.3363 1049.62 17.5647 1050.21 18.0214C1050.8 18.4782 1051.12 19.0263 1051.17 19.6658H1055.45C1055.38 17.7245 1054.64 16.2515 1053.23 15.2466C1051.81 14.2417 1049.96 13.7392 1047.68 13.7392C1046.21 13.7392 1044.91 13.9676 1043.77 14.4244C1042.65 14.8583 1041.77 15.5092 1041.13 16.3771C1040.49 17.2449 1040.17 18.3183 1040.17 19.5973C1040.17 21.196 1040.73 22.4749 1041.85 23.4342C1042.97 24.3934 1044.57 24.9872 1046.65 25.2156L1048.29 25.3868C1049.53 25.501 1050.39 25.7408 1050.9 26.1062C1051.42 26.4717 1051.68 26.9627 1051.68 27.5793C1051.68 28.2873 1051.34 28.8469 1050.66 29.258C1049.99 29.6691 1049.09 29.8746 1047.95 29.8746C1046.58 29.8746 1045.57 29.612 1044.93 29.0867C1044.3 28.5614 1043.94 27.979 1043.87 27.3395H1039.59C1039.66 29.258 1040.41 30.7653 1041.85 31.8615Z" fill="#515170"/>
<path fill-rule="evenodd" clip-rule="evenodd" d="M916.553 0.435059C905.202 0.435059 896 9.63691 896 20.988C896 32.339 905.202 41.5409 916.553 41.5409C927.904 41.5409 937.106 32.339 937.106 20.988C937.106 9.63691 927.904 0.435059 916.553 0.435059ZM900.609 20.988C900.609 12.1822 907.747 5.0437 916.553 5.0437C925.359 5.0437 932.497 12.1822 932.497 20.988C932.497 29.0243 926.552 35.672 918.819 36.7724V33.2554L922.912 31.7446C925.277 30.8715 926.848 28.6174 926.848 26.0962V19.1714C926.848 17.8988 925.816 16.8671 924.543 16.8671C923.271 16.8671 922.239 17.8988 922.239 19.1714V26.0962C922.239 26.6876 921.87 27.2164 921.316 27.4212L918.819 28.3427V10.1029C918.819 8.83025 917.788 7.79857 916.515 7.79857C915.242 7.79857 914.211 8.83025 914.211 10.1029V19.99L911.789 19.096C911.234 18.8912 910.866 18.3624 910.866 17.7711V14.7859C910.866 13.5132 909.834 12.4815 908.561 12.4815C907.289 12.4815 906.257 13.5132 906.257 14.7859V17.7711C906.257 20.2922 907.828 22.5464 910.193 23.4195L914.211 24.9027V36.7614C906.515 35.6285 900.609 28.998 900.609 20.988Z" fill="#515170"/>
</svg>
