<svg width="42" height="42" viewBox="0 0 42 42" fill="none" xmlns="http://www.w3.org/2000/svg">
<path fill-rule="evenodd" clip-rule="evenodd" d="M20.5529 0.435059C9.20185 0.435059 0 9.63691 0 20.988C0 32.339 9.20185 41.5409 20.5529 41.5409C31.904 41.5409 41.1058 32.339 41.1058 20.988C41.1058 9.63691 31.904 0.435059 20.5529 0.435059ZM4.60865 20.988C4.60865 12.1822 11.7471 5.0437 20.5529 5.0437C29.3587 5.0437 36.4972 12.1822 36.4972 20.988C36.4972 29.0243 30.5517 35.672 22.8194 36.7724V33.2554L26.9117 31.7446C29.2768 30.8715 30.8476 28.6174 30.8476 26.0962V19.1714C30.8476 17.8988 29.8159 16.8671 28.5432 16.8671C27.2706 16.8671 26.2389 17.8988 26.2389 19.1714V26.0962C26.2389 26.6876 25.8705 27.2164 25.3157 27.4212L22.8194 28.3427V10.1029C22.8194 8.83025 21.7877 7.79857 20.515 7.79857C19.2424 7.79857 18.2107 8.83025 18.2107 10.1029V19.99L15.7889 19.096C15.2342 18.8912 14.8657 18.3624 14.8657 17.7711V14.7859C14.8657 13.5132 13.834 12.4815 12.5614 12.4815C11.2888 12.4815 10.2571 13.5132 10.2571 14.7859V17.7711C10.2571 20.2922 11.8278 22.5464 14.1929 23.4195L18.2107 24.9027V36.7614C10.5153 35.6285 4.60865 28.998 4.60865 20.988Z" fill="#515170"/>
</svg>
