<svg width="113" height="27" viewBox="0 0 113 27" fill="none" xmlns="http://www.w3.org/2000/svg">
<path d="M7.47236 25.3412C9.09389 26.1405 11.0352 26.5402 13.2962 26.5402C15.6714 26.5402 17.7154 26.0948 19.4283 25.2041C21.1412 24.3134 22.4887 23.1258 23.4707 21.6413C24.4528 20.1568 25.058 18.5239 25.2864 16.7425H20.3875C20.1134 18.4097 19.3255 19.7115 18.0237 20.6478C16.7448 21.5614 15.1689 22.0182 13.2962 22.0182C12.0172 22.0182 10.8867 21.8012 9.90466 21.3673C8.94544 20.9333 8.13468 20.3281 7.47236 19.5516C6.81005 18.7523 6.3076 17.8273 5.96502 16.7767C5.64528 15.7262 5.48541 14.5842 5.48541 13.351C5.48541 12.072 5.64528 10.9072 5.96502 9.85667C6.3076 8.8061 6.79863 7.89256 7.4381 7.11606C8.07758 6.33955 8.87693 5.74575 9.83614 5.33466C10.7954 4.90073 11.8916 4.68376 13.1249 4.68376C14.3353 4.68376 15.4201 4.88931 16.3794 5.3004C17.3386 5.68865 18.1265 6.28245 18.7431 7.0818C19.3826 7.85831 19.7937 8.81752 19.9764 9.95944H24.8753C24.6697 7.99534 24.0645 6.28245 23.0596 4.82079C22.0547 3.33629 20.7073 2.19437 19.0172 1.39502C17.35 0.572836 15.3859 0.161743 13.1249 0.161743C10.9552 0.161743 9.07105 0.538578 7.47236 1.29225C5.89651 2.02308 4.59471 3.00513 3.56698 4.23841C2.53925 5.47169 1.77416 6.84199 1.27172 8.34933C0.792111 9.85667 0.552307 11.3869 0.552307 12.9399V13.6935C0.552307 15.0867 0.792111 16.5369 1.27172 18.0443C1.75133 19.5516 2.49358 20.9447 3.49847 22.2237C4.5262 23.5027 5.85083 24.5418 7.47236 25.3412Z" fill="#515170"/>
<path fill-rule="evenodd" clip-rule="evenodd" d="M37.9901 23.6283C38.2255 23.2291 38.4196 22.7886 38.5725 22.3069V25.8893H42.3408V14.3444C42.3408 12.6087 42.0096 11.2041 41.3473 10.1307C40.7079 9.05733 39.7486 8.2694 38.4697 7.76695C37.2136 7.26451 35.6263 7.01328 33.7079 7.01328C33.0912 7.01328 32.4289 7.0247 31.7209 7.04754C31.0358 7.04754 30.362 7.07038 29.6997 7.11606C29.0374 7.16173 28.4436 7.20741 27.9183 7.25309V11.2955C28.5578 11.2498 29.2772 11.2156 30.0766 11.1927C30.8987 11.147 31.7095 11.1128 32.5088 11.0899C33.3082 11.0671 33.9933 11.0557 34.5643 11.0557C35.6606 11.0557 36.4713 11.3183 36.9966 11.8436C37.5219 12.3689 37.7845 13.1683 37.7845 14.2417V14.4129H33.9819C32.3376 14.4129 30.8987 14.6299 29.6655 15.0638C28.455 15.4978 27.5072 16.1487 26.8221 17.0165C26.1598 17.8844 25.8286 19.0035 25.8286 20.3738C25.8286 21.6299 26.1027 22.7033 26.6508 23.594C27.2217 24.4847 28.0097 25.1699 29.0146 25.6495C30.0423 26.1291 31.2299 26.3689 32.5774 26.3689C33.8792 26.3689 34.9754 26.1405 35.8661 25.6837C36.7796 25.2041 37.4876 24.519 37.9901 23.6283ZM37.1336 21.4015C37.5219 20.8077 37.7389 20.0084 37.7845 19.0035V17.2563H33.9134C32.8172 17.2563 31.9721 17.5304 31.3783 18.0785C30.8074 18.6038 30.5219 19.289 30.5219 20.134C30.5219 20.979 30.8074 21.6642 31.3783 22.1894C31.9721 22.7147 32.8172 22.9774 33.9134 22.9774C34.5757 22.9774 35.181 22.8632 35.7291 22.6348C36.3 22.3836 36.7682 21.9725 37.1336 21.4015Z" fill="#515170"/>
<path d="M53.9847 26.5402C52.3631 26.5402 50.9586 26.2661 49.771 25.718C48.6062 25.1699 47.6242 24.439 46.8248 23.5255C46.0483 22.612 45.4659 21.5842 45.0777 20.4423C44.6894 19.3004 44.4953 18.1356 44.4953 16.948V16.2971C44.4953 15.041 44.6894 13.842 45.0777 12.7001C45.4888 11.5353 46.094 10.5076 46.8933 9.61687C47.6927 8.70333 48.6747 7.98392 49.8395 7.45863C51.0271 6.91051 52.3974 6.63645 53.9504 6.63645C55.5719 6.63645 57.0222 6.95619 58.3011 7.59566C59.5801 8.2123 60.5964 9.08016 61.3501 10.1992C62.1266 11.3183 62.5605 12.6201 62.6519 14.1046H58.0271C57.9129 13.1454 57.5018 12.3461 56.7938 11.7066C56.1086 11.0671 55.1609 10.7474 53.9504 10.7474C52.8998 10.7474 52.0206 10.9986 51.3126 11.501C50.6274 12.0035 50.1136 12.7001 49.771 13.5908C49.4284 14.4586 49.2571 15.4635 49.2571 16.6054C49.2571 17.7017 49.417 18.6952 49.7367 19.5859C50.0793 20.4766 50.5932 21.1731 51.2783 21.6756C51.9863 22.178 52.8884 22.4292 53.9847 22.4292C54.8069 22.4292 55.5148 22.2808 56.1086 21.9839C56.7024 21.687 57.1706 21.2759 57.5132 20.7506C57.8786 20.2253 58.107 19.6315 58.1984 18.9692H62.8232C62.7318 20.4766 62.2864 21.8012 61.4871 22.9431C60.7106 24.0622 59.6714 24.9415 58.3697 25.581C57.0907 26.2204 55.629 26.5402 53.9847 26.5402Z" fill="#515170"/>
<path d="M68.7618 25.4782C69.8809 25.9121 71.2969 26.1291 73.0097 26.1291H75.6818V22.0524H72.7699C71.8564 22.0524 71.1484 21.8126 70.646 21.333C70.1663 20.8306 69.9265 20.1226 69.9265 19.209L69.9434 10.7816H75.6818V7.28734H69.9503L69.9608 2.04592H65.5073L65.4966 7.28734H62.5269V10.7816H65.4895L65.473 18.9007C65.473 20.7049 65.7471 22.1438 66.2952 23.2172C66.8434 24.2677 67.6655 25.0214 68.7618 25.4782Z" fill="#515170"/>
<path d="M84.3033 26.4717C82.1564 26.4717 80.4892 25.7637 79.3016 24.3477C78.1369 22.9317 77.5545 20.8306 77.5545 18.0443V7.25309H82.3163V18.4554C82.3163 19.5973 82.6361 20.5108 83.2755 21.196C83.915 21.8583 84.7829 22.1894 85.8791 22.1894C86.9754 22.1894 87.8661 21.8354 88.5512 21.1275C89.2592 20.4195 89.6132 19.4602 89.6132 18.2498V7.25309H94.375V25.8893H90.6067V21.5574C90.5108 21.9515 90.3966 22.322 90.2641 22.6691C89.7845 23.9252 89.0651 24.873 88.1059 25.5124C87.1466 26.1519 85.9476 26.4717 84.5088 26.4717H84.3033Z" fill="#515170"/>
<path d="M98.8515 24.8615C100.313 25.935 102.323 26.4717 104.881 26.4717C106.525 26.4717 107.953 26.2204 109.163 25.718C110.374 25.2155 111.31 24.519 111.972 23.6283C112.657 22.7147 113 21.6413 113 20.408C113 18.7408 112.372 17.4162 111.116 16.4342C109.883 15.4521 108.17 14.8469 105.977 14.6185L104.333 14.4472C103.328 14.333 102.597 14.116 102.14 13.7963C101.706 13.4766 101.489 13.0198 101.489 12.426C101.489 11.8094 101.763 11.3069 102.312 10.9187C102.86 10.5304 103.636 10.3363 104.641 10.3363C105.76 10.3363 106.617 10.5647 107.21 11.0214C107.804 11.4782 108.124 12.0263 108.17 12.6658H112.452C112.383 10.7245 111.641 9.25145 110.225 8.24656C108.809 7.24167 106.959 6.73922 104.675 6.73922C103.214 6.73922 101.912 6.96761 100.77 7.42438C99.6509 7.85831 98.7716 8.5092 98.1321 9.37706C97.4927 10.2449 97.1729 11.3183 97.1729 12.5973C97.1729 14.196 97.7325 15.4749 98.8515 16.4342C99.9706 17.3934 101.569 17.9872 103.648 18.2156L105.292 18.3868C106.525 18.501 107.393 18.7408 107.896 19.1062C108.421 19.4717 108.684 19.9627 108.684 20.5793C108.684 21.2873 108.341 21.8469 107.656 22.258C106.993 22.6691 106.091 22.8746 104.949 22.8746C103.579 22.8746 102.574 22.612 101.935 22.0867C101.295 21.5614 100.941 20.979 100.873 20.3395H96.5905C96.659 22.258 97.4127 23.7653 98.8515 24.8615Z" fill="#515170"/>
</svg>
