<svg width="114" height="37" viewBox="0 0 114 37" fill="none" xmlns="http://www.w3.org/2000/svg">
<path d="M13.4494 28.9845C10.9136 28.9845 8.69801 28.4081 6.80258 27.2555C4.90715 26.1029 3.43435 24.502 2.38418 22.4529C1.33401 20.3782 0.808929 17.9705 0.808929 15.2298C0.808929 12.4635 1.34682 10.0302 2.4226 7.92984C3.524 5.80389 5.07364 4.1518 7.07152 2.97356C9.09502 1.76971 11.4899 1.16778 14.2562 1.16778C17.4067 1.16778 20.0193 1.92339 22.0941 3.43461C24.1688 4.94583 25.5135 7.03336 26.1283 9.6972H20.6341C20.2243 8.44212 19.4815 7.46879 18.4057 6.77722C17.3299 6.06003 15.9467 5.70144 14.2562 5.70144C11.5668 5.70144 9.49204 6.5595 8.03205 8.27563C6.57205 9.96615 5.84206 12.297 5.84206 15.2682C5.84206 18.2394 6.55925 20.5447 7.99362 22.184C9.45362 23.7976 11.4259 24.6045 13.9104 24.6045C16.3438 24.6045 18.1751 23.9513 19.4046 22.645C20.6597 21.3131 21.4153 19.5714 21.6714 17.4198H14.871V13.7314H26.6277V28.5234H22.0941L21.7099 24.9887C20.839 26.2694 19.7504 27.2555 18.4441 27.9471C17.1378 28.6387 15.4729 28.9845 13.4494 28.9845Z" fill="#515170"/>
<path d="M29.3724 28.5234V0.860413H34.2903V28.5234H29.3724Z" fill="#515170"/>
<path d="M46.5384 28.9845C44.6942 28.9845 43.0293 28.5618 41.5437 27.7166C40.0837 26.8713 38.9183 25.7059 38.0474 24.2203C37.2022 22.7091 36.7795 20.9673 36.7795 18.995C36.7795 17.0228 37.215 15.2938 38.0858 13.8082C38.9567 12.297 40.1221 11.1188 41.5821 10.2735C43.0677 9.42826 44.7326 9.00563 46.5768 9.00563C48.3954 9.00563 50.0347 9.42826 51.4947 10.2735C52.9803 11.1188 54.1457 12.297 54.991 13.8082C55.8619 15.2938 56.2973 17.0228 56.2973 18.995C56.2973 20.9673 55.8619 22.7091 54.991 24.2203C54.1457 25.7059 52.9803 26.8713 51.4947 27.7166C50.0091 28.5618 48.357 28.9845 46.5384 28.9845ZM46.5384 24.7197C47.8191 24.7197 48.9333 24.2459 49.881 23.2982C50.8287 22.3248 51.3026 20.8905 51.3026 18.995C51.3026 17.0996 50.8287 15.678 49.881 14.7303C48.9333 13.757 47.8319 13.2703 46.5768 13.2703C45.2705 13.2703 44.1435 13.757 43.1958 14.7303C42.2737 15.678 41.8127 17.0996 41.8127 18.995C41.8127 20.8905 42.2737 22.3248 43.1958 23.2982C44.1435 24.2459 45.2577 24.7197 46.5384 24.7197Z" fill="#515170"/>
<path d="M66.6496 28.9845C64.9591 28.9845 63.4735 28.7155 62.1928 28.1776C60.9121 27.6141 59.8876 26.8457 59.1191 25.8724C58.3507 24.899 57.8897 23.772 57.736 22.4913H62.6923C62.846 23.2341 63.2558 23.8745 63.9217 24.4124C64.6133 24.9247 65.497 25.1808 66.5728 25.1808C67.6486 25.1808 68.4298 24.9631 68.9165 24.5276C69.4287 24.0922 69.6849 23.5927 69.6849 23.0292C69.6849 22.2096 69.3263 21.6589 68.6091 21.3771C67.8919 21.0698 66.893 20.7752 65.6123 20.4935C64.7926 20.3142 63.9602 20.0964 63.1149 19.8403C62.2696 19.5842 61.4884 19.264 60.7712 18.8798C60.0797 18.47 59.5162 17.9577 59.0807 17.3429C58.6453 16.7026 58.4276 15.9214 58.4276 14.9993C58.4276 13.3088 59.0935 11.8872 60.4254 10.7346C61.783 9.58194 63.6784 9.00563 66.1117 9.00563C68.3658 9.00563 70.1587 9.53071 71.4906 10.5809C72.8482 11.6311 73.655 13.0782 73.9112 14.9224H69.2622C68.9805 13.5137 67.9175 12.8093 66.0733 12.8093C65.1512 12.8093 64.434 12.9886 63.9217 13.3472C63.4351 13.7058 63.1917 14.154 63.1917 14.6919C63.1917 15.2554 63.5631 15.7037 64.306 16.0366C65.0488 16.3696 66.0349 16.677 67.2644 16.9587C68.5963 17.2661 69.8129 17.6119 70.9143 17.9961C72.0413 18.3547 72.9378 18.9054 73.6038 19.6482C74.2698 20.3654 74.6027 21.4027 74.6027 22.7603C74.6283 23.9385 74.321 25.0015 73.6806 25.9492C73.0403 26.8969 72.1182 27.6397 70.9143 28.1776C69.7105 28.7155 68.2889 28.9845 66.6496 28.9845Z" fill="#515170"/>
<path d="M84.9145 28.9845C83.224 28.9845 81.7384 28.7155 80.4577 28.1776C79.177 27.6141 78.1525 26.8457 77.384 25.8724C76.6156 24.899 76.1546 23.772 76.0009 22.4913H80.9572C81.1109 23.2341 81.5207 23.8745 82.1866 24.4124C82.8782 24.9247 83.7619 25.1808 84.8377 25.1808C85.9135 25.1808 86.6947 24.9631 87.1813 24.5276C87.6936 24.0922 87.9498 23.5927 87.9498 23.0292C87.9498 22.2096 87.5912 21.6589 86.874 21.3771C86.1568 21.0698 85.1579 20.7752 83.8772 20.4935C83.0575 20.3142 82.2251 20.0964 81.3798 19.8403C80.5345 19.5842 79.7533 19.264 79.0361 18.8798C78.3446 18.47 77.7811 17.9577 77.3456 17.3429C76.9102 16.7026 76.6925 15.9214 76.6925 14.9993C76.6925 13.3088 77.3584 11.8872 78.6903 10.7346C80.0479 9.58194 81.9433 9.00563 84.3766 9.00563C86.6307 9.00563 88.4236 9.53071 89.7555 10.5809C91.1131 11.6311 91.9199 13.0782 92.1761 14.9224H87.5271C87.2454 13.5137 86.1824 12.8093 84.3382 12.8093C83.4161 12.8093 82.6989 12.9886 82.1866 13.3472C81.7 13.7058 81.4566 14.154 81.4566 14.6919C81.4566 15.2554 81.828 15.7037 82.5708 16.0366C83.3137 16.3696 84.2998 16.677 85.5293 16.9587C86.8612 17.2661 88.0778 17.6119 89.1792 17.9961C90.3062 18.3547 91.2027 18.9054 91.8687 19.6482C92.5347 20.3654 92.8676 21.4027 92.8676 22.7603C92.8932 23.9385 92.5859 25.0015 91.9455 25.9492C91.3052 26.8969 90.3831 27.6397 89.1792 28.1776C87.9754 28.7155 86.5538 28.9845 84.9145 28.9845Z" fill="#515170"/>
<path d="M96.6722 36.976L101.091 27.2555H99.938L92.5228 9.46668H97.8632L103.204 22.8755L108.775 9.46668H114L101.897 36.976H96.6722Z" fill="#515170"/>
</svg>
