<svg width="112" height="24" viewBox="0 0 112 24" fill="none" xmlns="http://www.w3.org/2000/svg">
<path d="M18.615 22.0988C18.615 22.3275 18.8004 22.5129 19.0291 22.5129H22.1772C22.406 22.5129 22.5914 22.3275 22.5914 22.0988V6.97912H19.0291C18.8004 6.97912 18.615 7.16454 18.615 7.39326V22.0988Z" fill="#515170"/>
<path d="M18.743 4.51889C19.1244 4.91939 19.7061 5.11964 20.4881 5.11964C21.27 5.11964 21.8421 4.91939 22.2045 4.51889C22.5669 4.09931 22.748 3.58438 22.748 2.97409C22.748 2.32566 22.5669 1.80119 22.2045 1.40068C21.8421 1.00018 21.27 0.799927 20.4881 0.799927C19.7061 0.799927 19.1244 1.00018 18.743 1.40068C18.3806 1.80119 18.1995 2.32566 18.1995 2.97409C18.1995 3.58438 18.3806 4.09931 18.743 4.51889Z" fill="#515170"/>
<path fill-rule="evenodd" clip-rule="evenodd" d="M12.3468 15.2467C11.1262 15.8188 9.63864 16.1049 7.88405 16.1049H4.73724V22.0988C4.73724 22.3275 4.55182 22.5129 4.3231 22.5129H1.08912C0.860403 22.5129 0.674988 22.3275 0.674988 22.0988V1.90064C0.674988 1.67192 0.860402 1.48651 1.08912 1.48651H4.3231C4.3678 1.48651 4.41084 1.49359 4.45116 1.50669C4.49149 1.49359 4.53453 1.48651 4.57922 1.48651H7.88405C9.63864 1.48651 11.1262 1.77258 12.3468 2.34473C13.5865 2.91687 14.5305 3.73695 15.1789 4.80496C15.8274 5.8539 16.1516 7.10309 16.1516 8.55253V9.01025C16.1516 10.4597 15.8274 11.7184 15.1789 12.7864C14.5305 13.8354 13.5865 14.6554 12.3468 15.2467ZM10.2871 5.49154C9.73399 5.16732 9.04742 5.00521 8.22734 5.00521H4.73724V12.5862H8.22734C9.04742 12.5862 9.73399 12.4241 10.2871 12.0998C10.8592 11.7756 11.2883 11.3274 11.5744 10.7553C11.8795 10.1832 12.0321 9.52518 12.0321 8.78139C12.0321 8.0376 11.8795 7.37963 11.5744 6.80748C11.2883 6.23533 10.8592 5.79668 10.2871 5.49154Z" fill="#515170"/>
<path d="M26.1579 22.5129C25.9292 22.5129 25.7438 22.3275 25.7438 22.0988V7.39326C25.7438 7.16454 25.9292 6.97912 26.1579 6.97912H28.4765C28.7052 6.97912 28.8906 7.16454 28.8906 7.39326V10.8071C28.9828 10.4087 29.0972 10.0386 29.2339 9.69683C29.6535 8.62882 30.2733 7.82781 31.0934 7.29381C31.9325 6.7598 32.9719 6.4928 34.2116 6.4928H34.3832C36.2332 6.4928 37.6349 7.09356 38.5885 8.29507C39.5421 9.4775 40.0189 11.2512 40.0189 13.616V22.0988C40.0189 22.3275 39.8335 22.5129 39.6047 22.5129H36.4566C36.2279 22.5129 36.0424 22.3275 36.0424 22.0988V13.2728C36.0424 12.3192 35.7659 11.5468 35.2128 10.9556C34.6788 10.3643 33.935 10.0687 32.9814 10.0687C32.0088 10.0687 31.2173 10.3739 30.607 10.9842C30.0158 11.5754 29.7202 12.3764 29.7202 13.3872V22.0988C29.7202 22.3275 29.5348 22.5129 29.3061 22.5129H26.1579Z" fill="#515170"/>
<path fill-rule="evenodd" clip-rule="evenodd" d="M54.85 15.2467C53.6294 15.8188 52.1418 16.1049 50.3873 16.1049H47.2404V22.0988C47.2404 22.3275 47.055 22.5129 46.8263 22.5129H43.5923C43.3636 22.5129 43.1782 22.3275 43.1782 22.0988V1.90064C43.1782 1.67192 43.3636 1.48651 43.5923 1.48651H46.8263C46.871 1.48651 46.914 1.49359 46.9544 1.50669C46.9947 1.49359 47.0377 1.48651 47.0824 1.48651H50.3873C52.1418 1.48651 53.6294 1.77258 54.85 2.34473C56.0897 2.91687 57.0337 3.73695 57.6821 4.80496C58.3306 5.8539 58.6548 7.10309 58.6548 8.55253V9.01025C58.6548 10.4597 58.3306 11.7184 57.6821 12.7864C57.0337 13.8354 56.0897 14.6554 54.85 15.2467ZM52.7903 5.49154C52.2372 5.16732 51.5506 5.00521 50.7305 5.00521H47.2404V12.5862H50.7305C51.5506 12.5862 52.2372 12.4241 52.7903 12.0998C53.3624 11.7756 53.7915 11.3274 54.0776 10.7553C54.3828 10.1832 54.5353 9.52518 54.5353 8.78139C54.5353 8.0376 54.3828 7.37963 54.0776 6.80748C53.7915 6.23533 53.3624 5.79668 52.7903 5.49154Z" fill="#515170"/>
<path fill-rule="evenodd" clip-rule="evenodd" d="M67.5056 23.0565C66.1325 23.0565 64.9214 22.8372 63.8725 22.3985C62.8236 21.9599 61.9367 21.3686 61.212 20.6249C60.4873 19.862 59.9342 19.0038 59.5528 18.0502C59.1904 17.0966 59.0093 16.1049 59.0093 15.075V14.4743C59.0093 13.4063 59.2 12.3955 59.5814 11.4419C59.9819 10.4692 60.5445 9.611 61.2692 8.86721C62.013 8.10435 62.9094 7.51313 63.9583 7.09355C65.0073 6.65491 66.1897 6.43558 67.5056 6.43558C68.8216 6.43558 70.004 6.65491 71.053 7.09355C72.1019 7.51313 72.9887 8.10435 73.7134 8.86721C74.4572 9.611 75.0199 10.4692 75.4013 11.4419C75.7827 12.3955 75.9734 13.4063 75.9734 14.4743V15.075C75.9734 16.1049 75.7827 17.0966 75.4013 18.0502C75.0389 19.0038 74.4954 19.862 73.7707 20.6249C73.0459 21.3686 72.1591 21.9599 71.1102 22.3985C70.0612 22.8372 68.8597 23.0565 67.5056 23.0565ZM67.5056 19.6522C68.4783 19.6522 69.2984 19.4424 69.9659 19.0228C70.6334 18.5842 71.1388 18.0025 71.4821 17.2778C71.8254 16.534 71.997 15.6948 71.997 14.7603C71.997 13.8068 71.8158 12.9676 71.4535 12.2429C71.1102 11.4991 70.5952 10.9174 69.9087 10.4978C69.2412 10.0592 68.4401 9.83986 67.5056 9.83986C66.5711 9.83986 65.7606 10.0592 65.074 10.4978C64.4065 10.9174 63.8916 11.4991 63.5292 12.2429C63.1669 12.9676 62.9857 13.8068 62.9857 14.7603C62.9857 15.6948 63.1573 16.534 63.5006 17.2778C63.863 18.0025 64.3779 18.5842 65.0454 19.0228C65.7129 19.4424 66.533 19.6522 67.5056 19.6522Z" fill="#515170"/>
<path d="M78.7687 22.0988C78.7687 22.3275 78.9541 22.5129 79.1828 22.5129H82.331C82.5597 22.5129 82.7451 22.3275 82.7451 22.0988V6.97912H79.1828C78.9541 6.97912 78.7687 7.16454 78.7687 7.39326V22.0988Z" fill="#515170"/>
<path d="M78.8967 4.51889C79.2782 4.91939 79.8599 5.11964 80.6418 5.11964C81.4237 5.11964 81.9959 4.91939 82.3582 4.51889C82.7206 4.09931 82.9018 3.58438 82.9018 2.97409C82.9018 2.32566 82.7206 1.80119 82.3582 1.40068C81.9959 1.00018 81.4237 0.799927 80.6418 0.799927C79.8599 0.799927 79.2782 1.00018 78.8967 1.40068C78.5344 1.80119 78.3532 2.32566 78.3532 2.97409C78.3532 3.58438 78.5344 4.09931 78.8967 4.51889Z" fill="#515170"/>
<path d="M86.3117 22.5129C86.0829 22.5129 85.8975 22.3275 85.8975 22.0988V7.39326C85.8975 7.16454 86.0829 6.97912 86.3117 6.97912H88.6302C88.8589 6.97912 89.0443 7.16454 89.0443 7.39326V10.8071C89.1365 10.4086 89.2509 10.0386 89.3876 9.69683C89.8072 8.62882 90.427 7.82781 91.2471 7.29381C92.0863 6.7598 93.1256 6.4928 94.3653 6.4928H94.5369C96.3869 6.4928 97.7887 7.09356 98.7422 8.29507C99.6958 9.4775 100.173 11.2512 100.173 13.616V22.0988C100.173 22.3275 99.9872 22.5129 99.7585 22.5129H96.6103C96.3816 22.5129 96.1962 22.3275 96.1962 22.0988V13.2728C96.1962 12.3192 95.9196 11.5468 95.3666 10.9556C94.8326 10.3643 94.0888 10.0687 93.1352 10.0687C92.1625 10.0687 91.3711 10.3739 90.7608 10.9842C90.1696 11.5754 89.8739 12.3764 89.8739 13.3872V22.0988C89.8739 22.3275 89.6885 22.5129 89.4598 22.5129H86.3117Z" fill="#515170"/>
<path d="M106.221 22.1697C107.156 22.532 108.338 22.7132 109.769 22.7132H111.586C111.815 22.7132 112 22.5278 112 22.2991V19.723C112 19.4943 111.815 19.3089 111.586 19.3089H109.568C108.805 19.3089 108.214 19.1087 107.795 18.7082C107.394 18.2886 107.194 17.6974 107.194 16.9345L107.208 9.89708H111.586C111.815 9.89708 112 9.71166 112 9.48294V7.39326C112 7.16454 111.815 6.97912 111.586 6.97912H107.214L107.222 3.01715C107.222 2.78811 107.037 2.60219 106.808 2.60219H103.917C103.688 2.60219 103.503 2.78709 103.503 3.01549L103.495 6.97912H101.429C101.2 6.97912 101.015 7.16454 101.015 7.39326V9.48294C101.015 9.71166 101.2 9.89708 101.429 9.89708H103.489L103.475 16.677C103.475 18.1837 103.704 19.3852 104.162 20.2816C104.619 21.1589 105.306 21.7882 106.221 22.1697Z" fill="#515170"/>
</svg>
