<svg width="41" height="40" viewBox="0 0 41 40" fill="none" xmlns="http://www.w3.org/2000/svg">
<path fill-rule="evenodd" clip-rule="evenodd" d="M39.9805 18.4457C40.764 22.1828 40.4015 25.6587 39.1355 28.5574L39.2026 28.5563C38.1173 31.5267 34.5072 37.7415 26.0074 39.5237C25.684 39.5916 25.361 39.6453 25.0389 39.6856C24.2279 39.8049 23.3867 39.8665 22.5185 39.8665C12.4523 39.8665 2.55504 31.5804 0.412222 21.359C-0.608464 16.4902 0.314367 12.0605 2.64868 8.75634C3.73293 6.66922 9.42133 1.60746 14.0118 0.623882C14.1359 0.5973 14.2552 0.576456 14.3699 0.561116C15.5833 0.265572 16.8776 0.109558 18.2401 0.109558C28.124 0.109558 37.8575 8.31894 39.9805 18.4457ZM36.5204 17.5889C38.1871 25.5389 33.2451 31.9837 25.4823 31.9837C17.7195 31.9837 10.0754 25.5389 8.40877 17.5889C6.74214 9.63891 11.6841 3.19416 19.4469 3.19416C27.2097 3.19416 34.8538 9.63891 36.5204 17.5889ZM25.0088 27.5281C30.7546 27.5281 34.4363 22.8715 33.2321 17.1273C32.0278 11.383 26.3937 6.72639 20.6479 6.72639C14.9021 6.72639 11.2205 11.383 12.4247 17.1273C13.6289 22.8715 19.263 27.5281 25.0088 27.5281ZM30.1271 16.6962C30.8825 20.2997 28.5102 23.2209 24.8284 23.2209C21.1466 23.2209 17.5494 20.2997 16.794 16.6962C16.0386 13.0928 18.4109 10.1715 22.0927 10.1715C25.7745 10.1715 29.3716 13.0928 30.1271 16.6962ZM26.751 16.6963C27.1239 18.4748 25.953 19.9165 24.1359 19.9165C22.3188 19.9165 20.5435 18.4748 20.1706 16.6963C19.7978 14.9179 20.9686 13.4761 22.7857 13.4761C24.6029 13.4761 26.3782 14.9179 26.751 16.6963Z" fill="#515170"/>
</svg>
