<svg width="28" height="34" viewBox="0 0 28 34" fill="none" xmlns="http://www.w3.org/2000/svg">
<path d="M6.24062 0.403015H0.552832C0.247512 0.403015 0 0.650526 0 0.955847V11.6736L6.24062 0.403015Z" fill="#515170"/>
<path d="M0 15.1209C0.0179894 15.1217 0.0361235 15.1221 0.0543965 15.1221H8.72601C9.40476 15.1221 9.93808 15.702 9.88019 16.3771L9.12986 25.1282C9.02323 26.3718 10.693 26.8786 11.2979 25.7863L20.3086 9.51298C20.7353 8.74227 20.1769 7.79722 19.2947 7.79722H10.6231C9.94435 7.79722 9.41103 7.21732 9.46892 6.54224L9.9953 0.403015H18.746C26.8097 0.403015 30.4243 10.5455 24.1879 15.6729L19.3127 19.6811C18.9933 19.9437 18.9304 20.409 19.1685 20.7474L27.5815 32.7019C27.8392 33.0682 27.5773 33.5729 27.1294 33.5729H0.552832C0.247511 33.5729 0 33.3254 0 33.0201V15.1209Z" fill="#515170"/>
</svg>
