<svg width="122" height="29" viewBox="0 0 122 29" fill="none" xmlns="http://www.w3.org/2000/svg">
<path d="M56.7313 13.3592V21.7408H61.3607V12.3305C61.3607 11.2211 61.1189 10.2528 60.6346 9.4257C60.1708 8.57837 59.5052 7.92269 58.6376 7.45894C57.77 6.97467 56.7615 6.73254 55.6116 6.73254C54.4822 6.73254 53.4834 6.97467 52.6164 7.45894C52.3859 7.58203 52.1694 7.7197 51.9658 7.8714C51.8557 7.95319 51.7499 8.0393 51.6478 8.12946V0.378479H47.0184V21.7408H51.6478V13.3592C51.6478 12.855 51.7591 12.4112 51.9809 12.0279C52.2028 11.6243 52.5052 11.3217 52.8885 11.1201C53.2718 10.8982 53.7156 10.7873 54.2198 10.7873C54.9459 10.7873 55.5414 11.0294 56.0052 11.5134C56.4894 11.9774 56.7313 12.5926 56.7313 13.3592Z" fill="#515170"/>
<path fill-rule="evenodd" clip-rule="evenodd" d="M5.29473 12.9357V21.7408H0.544373V0.378479H9.25849C10.6708 0.378479 11.9114 0.650846 12.9804 1.19531C14.0493 1.7198 14.8867 2.45619 15.4919 3.40421C16.0971 4.35223 16.3994 5.4417 16.3994 6.67207C16.3994 7.92269 16.0971 9.02215 15.4919 9.97017C14.8867 10.8982 14.0396 11.6243 12.9502 12.1488C12.3423 12.4414 11.6755 12.6525 10.9483 12.7818L17.7918 21.7408H12.1636L5.79196 12.9357H5.29473ZM5.29473 9.4257H8.68407C9.63209 9.4257 10.3582 9.18357 10.8625 8.6993C11.3867 8.2153 11.6491 7.55962 11.6491 6.73254C11.6491 5.96618 11.3969 5.33075 10.8927 4.82651C10.3885 4.32199 9.66232 4.06987 8.7143 4.06987H5.29473V9.4257Z" fill="#515170"/>
<path fill-rule="evenodd" clip-rule="evenodd" d="M20.8469 21.1054C22.0978 21.7508 23.5198 22.0736 25.113 22.0736C26.3439 22.0736 27.4733 21.8617 28.5023 21.4382C29.5308 21.0144 30.4086 20.379 31.1348 19.5319L28.593 16.9902C28.1493 17.4944 27.6348 17.8777 27.0495 18.1401C26.4648 18.382 25.8094 18.5032 25.0828 18.5032C24.2962 18.5032 23.6105 18.3417 23.0253 18.0189C22.4606 17.6761 22.0168 17.2021 21.694 16.5969C21.5925 16.3868 21.5083 16.1633 21.4408 15.9261L31.9818 15.901C32.0628 15.5176 32.113 15.1848 32.133 14.9025C32.147 14.7969 32.1584 14.6941 32.1675 14.5934C32.1724 14.5434 32.1762 14.4943 32.1794 14.4457C32.1843 14.3726 32.1881 14.3008 32.1902 14.2303L32.1924 14.1526L32.1935 14.0551C32.1935 12.6228 31.8711 11.352 31.2255 10.2425C30.6003 9.13309 29.7327 8.26578 28.6233 7.64034C27.5138 7.01516 26.2327 6.7023 24.7804 6.7023C23.2877 6.7023 21.9461 7.03514 20.7562 7.7008C19.5658 8.36647 18.6178 9.28452 17.9116 10.4544C17.226 11.6041 16.8831 12.9155 16.8831 14.388C16.8831 15.8605 17.2362 17.1818 17.9418 18.3517C18.648 19.5216 19.6165 20.4397 20.8469 21.1054ZM21.4424 12.7481C21.4651 12.6693 21.4894 12.5921 21.5153 12.5165C21.5595 12.3891 21.6087 12.2663 21.6637 12.1488C21.9666 11.5436 22.3801 11.0796 22.9044 10.757C23.4491 10.4139 24.0845 10.2425 24.8107 10.2425C25.4963 10.2425 26.0713 10.394 26.5356 10.6966L26.5977 10.7338L26.6597 10.7735C26.7121 10.8083 26.7629 10.845 26.812 10.8834C26.86 10.9209 26.907 10.9603 26.9524 11.0013C27.2336 11.2561 27.4577 11.5782 27.6245 11.9674C27.726 12.1953 27.8081 12.4493 27.8707 12.7297L21.4424 12.7481Z" fill="#515170"/>
<path d="M40.3288 22.0736C38.8156 22.0736 37.4437 21.7408 36.2134 21.0751C34.983 20.4095 34.015 19.4914 33.3088 18.3215C32.6027 17.1516 32.2496 15.8402 32.2496 14.388C32.2496 12.9155 32.6027 11.6041 33.3088 10.4544C34.035 9.28452 35.0132 8.36647 36.2436 7.7008C37.4745 7.03514 38.856 6.7023 40.3893 6.7023C41.5387 6.7023 42.5877 6.90422 43.5362 7.3075C44.0194 7.49889 44.4751 7.74048 44.9032 8.03228C45.3324 8.32517 45.7341 8.66853 46.1077 9.06264L43.1427 12.0279C42.7998 11.6446 42.396 11.3622 41.9323 11.1806C41.7228 11.095 41.4982 11.0297 41.2574 10.9843C41.1473 10.9635 41.0344 10.9471 40.9184 10.9349C40.7985 10.9222 40.6749 10.9141 40.548 10.9106C40.4957 10.909 40.4427 10.9082 40.3893 10.9082C40.2257 10.9082 40.0664 10.9174 39.9115 10.9355L39.8284 10.9463L39.7765 10.9538C39.7225 10.9622 39.6691 10.9719 39.6162 10.9824C39.2534 11.0553 38.916 11.1819 38.6039 11.3622C38.0997 11.6446 37.6964 12.0479 37.3935 12.5724C37.1112 13.0769 36.9697 13.6718 36.9697 14.3577C36.9697 15.0436 37.1112 15.6488 37.3935 16.1731C37.6964 16.6975 38.1099 17.1111 38.6342 17.4137C39.1584 17.7163 39.7436 17.8677 40.3893 17.8677C40.9945 17.8677 41.529 17.7668 41.9927 17.5651C42.477 17.3432 42.8905 17.0406 43.2334 16.6573L46.1687 19.6226C45.402 20.4294 44.5345 21.0446 43.5665 21.4684C42.5979 21.8717 41.5187 22.0736 40.3288 22.0736Z" fill="#515170"/>
<path fill-rule="evenodd" clip-rule="evenodd" d="M69.2661 22.0434C67.9148 22.0434 66.7044 21.7106 65.6355 21.0446C64.5865 20.379 63.7491 19.4714 63.124 18.3215C62.5188 17.1718 62.2159 15.8605 62.2159 14.388C62.2159 12.9155 62.5188 11.6041 63.124 10.4544C63.7491 9.3045 64.5865 8.39697 65.6355 7.73103C66.7044 7.06537 67.9148 6.73254 69.2661 6.73254C70.2546 6.73254 71.1422 6.92419 71.9288 7.3075C72.4579 7.55881 72.9216 7.87518 73.3206 8.25633V7.03514H77.8593V21.7408H73.3206V20.5493C73.0479 20.8071 72.7418 21.0354 72.4023 21.2344C72.3402 21.2708 72.2765 21.3065 72.2122 21.341C72.1296 21.385 72.0449 21.4274 71.959 21.4684C71.1524 21.8517 70.2546 22.0434 69.2661 22.0434ZM70.2044 17.8677C71.1929 17.8677 71.9893 17.5449 72.5945 16.8995C73.1996 16.2338 73.5025 15.3964 73.5025 14.388C73.5025 14.0449 73.4669 13.722 73.3962 13.4194C73.3254 13.1168 73.2196 12.8345 73.0787 12.5724C72.8163 12.0479 72.433 11.6446 71.9288 11.3622C71.6567 11.1919 71.3587 11.0696 71.0353 10.9951C70.7837 10.9371 70.517 10.9082 70.2347 10.9082C69.9124 10.9082 69.6073 10.946 69.3201 11.0216C69.1446 11.0677 68.9757 11.1279 68.8137 11.2022C68.71 11.2497 68.6086 11.3031 68.5098 11.3622C68.0255 11.6446 67.6325 12.0479 67.3296 12.5724C67.0472 13.0969 66.9063 13.7021 66.9063 14.388C66.9063 15.0536 67.0472 15.6488 67.3296 16.1731C67.6119 16.6975 68.0055 17.1111 68.5098 17.4137C69.014 17.7163 69.5787 17.8677 70.2044 17.8677Z" fill="#515170"/>
<path d="M84.5381 7.03514H79.9087V21.7408H84.5381V13.6618C84.5381 12.7135 84.76 12.0077 85.2038 11.5436C85.6681 11.0596 86.283 10.8175 87.0496 10.8175C87.4329 10.8175 87.7757 10.878 88.0786 10.9992C88.3809 11.1201 88.633 11.2915 88.835 11.5134L91.5883 8.03363C91.185 7.58986 90.711 7.26728 90.1663 7.06537C89.6421 6.84348 89.0266 6.73254 88.3205 6.73254C86.7068 6.73254 85.4462 7.20682 84.5381 8.15484V7.03514Z" fill="#515170"/>
<path fill-rule="evenodd" clip-rule="evenodd" d="M97.4308 28.337C95.8172 28.337 94.3951 28.0546 93.1648 27.4896C91.9544 26.9452 90.9961 26.1686 90.2899 25.1598L93.134 22.3155C93.6587 22.9409 94.244 23.4149 94.8891 23.7378C95.5548 24.0604 96.3516 24.2218 97.2797 24.2218C98.4296 24.2218 99.3269 23.9394 99.9726 23.3747C100.638 22.8097 100.971 22.0129 100.971 20.9842V20.0553C100.656 20.3074 100.303 20.5261 99.9121 20.7118C99.105 21.0951 98.2077 21.2868 97.2192 21.2868C95.8674 21.2868 94.6672 20.9642 93.6183 20.3185C92.5693 19.6731 91.7422 18.7955 91.137 17.6861C90.5318 16.5766 90.2295 15.3462 90.2295 13.9947C90.2295 12.6228 90.5318 11.3925 91.137 10.303C91.7422 9.19355 92.5693 8.32625 93.6183 7.7008C94.6672 7.05538 95.8674 6.73254 97.2192 6.73254C98.2277 6.73254 99.1255 6.92419 99.9121 7.3075C99.9845 7.3399 100.055 7.37364 100.125 7.40873C100.468 7.58203 100.781 7.78691 101.062 8.02338V7.03514H105.601V20.8632C105.601 22.3762 105.248 23.6873 104.542 24.7967C103.835 25.9062 102.867 26.7735 101.637 27.3989C100.406 28.0244 99.0046 28.337 97.4308 28.337ZM98.0965 17.1718C98.7422 17.1718 99.2967 17.0304 99.7609 16.748C99.8797 16.6786 99.9915 16.6036 100.096 16.5232C100.416 16.2767 100.667 15.9784 100.85 15.6286C100.928 15.4844 100.995 15.3352 101.049 15.1805C101.12 14.9799 101.172 14.7702 101.204 14.5515C101.23 14.372 101.243 14.1863 101.243 13.9947C101.243 13.3895 101.112 12.8447 100.85 12.3607C100.608 11.8765 100.245 11.4932 99.7609 11.2108C99.2967 10.9284 98.7422 10.7873 98.0965 10.7873C97.9059 10.7873 97.7224 10.8005 97.5448 10.8267L97.4519 10.8418L97.3704 10.8569C97.1944 10.8923 97.0254 10.9411 96.8634 11.0035C96.7727 11.0383 96.6842 11.0774 96.5984 11.1206C96.5422 11.149 96.4872 11.1789 96.4326 11.2108C95.9484 11.4932 95.5753 11.8765 95.3129 12.3607C95.1763 12.6129 95.0748 12.8814 95.0095 13.1665C94.9496 13.4286 94.9193 13.7047 94.9193 13.9947C94.9193 14.5594 95.0505 15.0938 95.3129 15.5984C95.5753 16.0824 95.9381 16.4657 96.4024 16.748C96.6621 16.8997 96.9455 17.0109 97.2527 17.0811C97.5167 17.1416 97.798 17.1718 98.0965 17.1718Z" fill="#515170"/>
<path fill-rule="evenodd" clip-rule="evenodd" d="M110.653 21.1054C111.904 21.7508 113.326 22.0736 114.92 22.0736C116.15 22.0736 117.28 21.8617 118.308 21.4382C119.337 21.0144 120.215 20.379 120.941 19.5319L118.399 16.9902C117.955 17.4944 117.441 17.8777 116.856 18.1401C116.271 18.382 115.615 18.5032 114.889 18.5032C114.103 18.5032 113.417 18.3417 112.832 18.0189C112.429 17.7743 112.087 17.4628 111.808 17.0844C111.763 17.0242 111.72 16.9621 111.679 16.8984C111.616 16.802 111.556 16.7013 111.501 16.5969C111.399 16.3868 111.314 16.1633 111.247 15.9261L121.788 15.901C121.828 15.7117 121.861 15.5347 121.886 15.37C121.911 15.201 121.929 15.0453 121.94 14.9025C121.954 14.7958 121.965 14.6916 121.975 14.5901C121.991 14.4033 122 14.2249 122 14.0551C122 12.6228 121.677 11.352 121.032 10.2425C120.406 9.13309 119.539 8.26578 118.43 7.64034C117.32 7.01516 116.039 6.7023 114.587 6.7023C113.094 6.7023 111.753 7.03514 110.562 7.7008C109.372 8.36647 108.424 9.28452 107.718 10.4544C107.033 11.6041 106.689 12.9155 106.689 14.388C106.689 15.8605 107.042 17.1818 107.748 18.3517C108.455 19.5216 109.423 20.4397 110.653 21.1054ZM111.249 12.7481C111.309 12.5359 111.383 12.3359 111.47 12.1488C111.643 11.8033 111.851 11.5039 112.097 11.2507C112.182 11.1619 112.273 11.0788 112.368 11.0013C112.477 10.9125 112.591 10.831 112.711 10.757C113.256 10.4139 113.891 10.2425 114.617 10.2425C115.303 10.2425 115.878 10.394 116.342 10.6966C116.527 10.8045 116.694 10.933 116.844 11.0823C117.086 11.3234 117.282 11.6184 117.431 11.9674C117.532 12.1953 117.614 12.4493 117.677 12.7297L111.249 12.7481Z" fill="#515170"/>
</svg>
