<svg width="125" height="32" viewBox="0 0 125 32" fill="none" xmlns="http://www.w3.org/2000/svg">
<path d="M95.1533 0.963013V30.6325H99.4956V0.963013H95.1533Z" fill="#515170"/>
<path fill-rule="evenodd" clip-rule="evenodd" d="M55.8886 31.1115C54.1751 31.1115 52.7436 30.7124 51.5942 29.9141C51.4684 29.8268 51.346 29.736 51.227 29.6418V30.6325H47.3956V1.44194H51.7698V13.9472C52.8428 13.2572 54.1413 12.9122 55.6651 12.9122C57.3147 12.9122 58.7515 13.306 59.9754 14.0936C61.1994 14.8811 62.1466 15.9614 62.8171 17.3343C63.4982 18.6966 63.8388 20.2558 63.8388 22.0118C63.8388 23.736 63.5036 25.2845 62.8331 26.6574C62.1732 28.0304 61.2473 29.1159 60.0553 29.9141C58.8633 30.7124 57.4744 31.1115 55.8886 31.1115ZM51.6101 19.266C51.3547 20.0536 51.227 20.9688 51.227 22.0118C51.227 23.0548 51.3547 23.9701 51.6101 24.7577C51.8656 25.5453 52.2807 26.1572 52.8554 26.5936C53.4407 27.0299 54.2177 27.2481 55.1862 27.2481C56.1227 27.2481 56.889 27.014 57.485 26.5457C58.081 26.0774 58.5227 25.4495 58.81 24.6619C59.0974 23.8637 59.2411 22.9803 59.2411 22.0118C59.2411 21.054 59.0921 20.1813 58.7941 19.3937C58.4961 18.5955 58.0331 17.9622 57.4052 17.494C56.7879 17.015 55.995 16.7756 55.0265 16.7756C54.1219 16.7756 53.3875 16.9937 52.8234 17.4301C52.27 17.8665 51.8656 18.4784 51.6101 19.266Z" fill="#515170"/>
<path d="M40.5304 20.4474V30.6325H44.8727V19.2979C44.8727 17.4141 44.3672 15.8922 43.3561 14.7321C42.3557 13.5614 40.871 12.9761 38.9021 12.9761C37.7526 12.9761 36.7043 13.2315 35.7571 13.7423C34.8899 14.2055 34.1824 14.8421 33.6345 15.652C33.226 14.9169 32.6617 14.3123 31.9416 13.8381C31.0796 13.2634 29.9727 12.9761 28.6211 12.9761C27.4397 12.9761 26.3701 13.2368 25.4122 13.7583C24.6884 14.1568 24.0764 14.6641 23.5763 15.2801V13.3911H19.7449V30.6325H24.1191V20.1919C24.1191 19.2021 24.3905 18.3986 24.9333 17.7813C25.4867 17.1534 26.2158 16.8394 27.1204 16.8394C28.0676 16.8394 28.8073 17.1587 29.3395 17.7973C29.8822 18.4252 30.1536 19.3086 30.1536 20.4474V30.6325H34.4959V20.1919C34.4959 19.5321 34.6183 18.952 34.8631 18.4518C35.1185 17.941 35.4697 17.5472 35.9167 17.2705C36.3637 16.9831 36.8906 16.8394 37.4972 16.8394C38.4444 16.8394 39.1841 17.1587 39.7162 17.7973C40.259 18.4252 40.5304 19.3086 40.5304 20.4474Z" fill="#515170"/>
<path d="M4.18795 30.4569C5.03938 30.9146 6.14092 31.1434 7.49257 31.1434C9.18478 31.1434 10.5843 30.7762 11.6912 30.0419C12.2165 29.6967 12.6794 29.3009 13.0801 28.8546V30.6325H16.9115V13.3911H12.5373V22.1396C12.5373 23.2038 12.4149 24.0659 12.1701 24.7258C11.936 25.375 11.6326 25.8699 11.2601 26.2104C10.8876 26.5404 10.4885 26.7639 10.0628 26.8809C9.6371 26.998 9.238 27.0565 8.86549 27.0565C7.93956 27.0565 7.22117 26.849 6.71031 26.4339C6.2101 26.0189 5.84824 25.5027 5.62474 24.8854C5.40124 24.2681 5.26821 23.6562 5.22563 23.0495C5.18306 22.4322 5.16178 21.9267 5.16178 21.5329V13.3911H0.75563V23.0655C0.75563 23.3528 0.776917 23.8105 0.819487 24.4384C0.862058 25.0663 0.984452 25.7634 1.18667 26.5297C1.38888 27.2854 1.72413 28.0144 2.19242 28.7168C2.67135 29.4192 3.33653 29.9993 4.18795 30.4569Z" fill="#515170"/>
<path d="M65.7553 13.3911V30.6325H70.1295V21.8203C70.1295 21.1604 70.2199 20.5697 70.4009 20.0482C70.5818 19.5161 70.8479 19.0585 71.1991 18.6753C71.5503 18.2815 71.9813 17.9676 72.4922 17.7334C73.0031 17.4886 73.5725 17.345 74.2004 17.3024C74.839 17.2492 75.3977 17.2971 75.8766 17.4461V13.3911C75.3551 13.3273 74.8336 13.3166 74.3121 13.3592C73.7906 13.3911 73.2851 13.4816 72.7955 13.6306C72.3059 13.769 71.8536 13.9658 71.4386 14.2213C70.8958 14.5406 70.4381 14.945 70.0656 15.4346C69.8893 15.6663 69.7296 15.91 69.5867 16.1656V13.3911H65.7553Z" fill="#515170"/>
<path fill-rule="evenodd" clip-rule="evenodd" d="M85.0192 31.1115C83.2525 31.1115 81.6933 30.7336 80.3416 29.978C79.0006 29.2117 77.947 28.1634 77.1807 26.833C76.4251 25.492 76.0472 23.9595 76.0472 22.2353C76.0472 20.3516 76.4197 18.7126 77.1648 17.3183C77.9098 15.9241 78.9368 14.8439 80.2459 14.0776C81.5549 13.3007 83.0609 12.9122 84.7638 12.9122C86.5731 12.9122 88.1109 13.3379 89.3774 14.1893C90.6439 15.0408 91.5805 16.2381 92.1872 17.7813C92.7938 19.3245 93.0067 21.1391 92.8257 23.2251H80.7194C80.855 24.2599 81.1761 25.1007 81.6826 25.7475C82.3851 26.6202 83.4121 27.0565 84.7638 27.0565C85.6152 27.0565 86.3442 26.8703 86.9509 26.4978C87.5575 26.1253 88.0205 25.5878 88.3398 24.8854L92.6821 26.1306C92.0328 27.7057 91.0058 28.9297 89.6009 29.8024C88.2067 30.6751 86.6795 31.1115 85.0192 31.1115ZM87.6852 17.8452C88.0563 18.3493 88.3054 19.0677 88.4323 20.0004H80.8337C81.0029 19.204 81.2859 18.5495 81.6826 18.0367C82.3851 17.1321 83.476 16.6798 84.9553 16.6798C86.2218 16.6798 87.1318 17.0682 87.6852 17.8452Z" fill="#515170"/>
<path d="M103.004 30.6325V0.963013H107.347V30.6325H103.004Z" fill="#515170"/>
<path fill-rule="evenodd" clip-rule="evenodd" d="M112.181 30.409C113.043 30.8773 114.091 31.1115 115.326 31.1115C116.816 31.1115 118.045 30.856 119.013 30.3452C119.785 29.934 120.514 29.3243 121.201 28.5161V30.6325H125V20.0961C125 19.3086 124.968 18.5955 124.904 17.9569C124.84 17.3183 124.638 16.6798 124.298 16.0412C123.691 14.8918 122.797 14.0829 121.616 13.6146C120.434 13.1463 119.083 12.9122 117.561 12.9122C115.485 12.9122 113.846 13.3592 112.644 14.2532C111.441 15.1472 110.622 16.3073 110.185 17.7334L114.112 18.9786C114.389 18.1911 114.873 17.643 115.565 17.3343C116.257 17.0257 116.922 16.8714 117.561 16.8714C118.71 16.8714 119.53 17.1108 120.019 17.5897C120.404 17.9658 120.637 18.5093 120.72 19.2201C119.984 19.3314 119.288 19.4372 118.63 19.5374C117.513 19.697 116.512 19.8673 115.629 20.0482C114.746 20.2292 113.985 20.4367 113.346 20.6709C112.42 21.0114 111.68 21.4371 111.127 21.948C110.584 22.4482 110.19 23.0282 109.946 23.6881C109.701 24.3479 109.578 25.077 109.578 25.8752C109.578 26.833 109.797 27.7111 110.233 28.5093C110.68 29.2969 111.329 29.9301 112.181 30.409ZM118.263 27.28C117.72 27.5567 117.05 27.6951 116.252 27.6951C115.751 27.6951 115.32 27.6206 114.958 27.4716C114.597 27.3226 114.315 27.1097 114.112 26.833C113.921 26.5457 113.825 26.2051 113.825 25.8113C113.825 25.524 113.884 25.2632 114.001 25.0291C114.128 24.7949 114.32 24.5821 114.575 24.3905C114.841 24.1883 115.187 24.002 115.613 23.8318C115.986 23.6934 116.417 23.5657 116.906 23.4486C117.396 23.3315 118.04 23.2038 118.838 23.0655C119.351 22.9697 119.965 22.8608 120.68 22.7387C120.67 23.0422 120.652 23.3853 120.626 23.7679C120.594 24.3852 120.466 24.928 120.243 25.3962C120.126 25.641 119.902 25.9443 119.572 26.3062C119.253 26.6681 118.817 26.9927 118.263 27.28Z" fill="#515170"/>
</svg>
