<svg width="28" height="34" viewBox="0 0 28 34" fill="none" xmlns="http://www.w3.org/2000/svg">
<path fill-rule="evenodd" clip-rule="evenodd" d="M11.7917 14.5155H0V19.6507C0 27.3185 6.216 33.5345 13.8838 33.5345C21.5517 33.5345 27.7677 27.3185 27.7677 19.6507V14.5155H15.5955L15.5955 6.33741C15.5955 3.0812 12.9559 0.441528 9.69967 0.441528C6.44347 0.441528 3.80379 3.0812 3.80379 6.3374L7.60758 6.3374C7.60758 5.18197 8.54424 4.24532 9.69967 4.24532C10.8551 4.24532 11.7917 5.18198 11.7917 6.3374L11.7917 14.5155ZM11.7917 18.3193L11.7917 25.5465L15.5955 25.5465L15.5955 18.3193H23.9639V19.6507C23.9639 25.2177 19.4509 29.7307 13.8838 29.7307C8.31678 29.7307 3.80379 25.2177 3.80379 19.6507V18.3193H11.7917Z" fill="#515170"/>
</svg>
