<svg width="20" height="20" viewBox="0 0 20 20" fill="none" xmlns="http://www.w3.org/2000/svg">
<path d="M9.16666 16.75L16 9.91663C16.4167 9.49996 16.9167 9.24996 17.5 9.24996C18.0833 9.24996 18.5833 9.49996 19 9.91663L19.1667 10.0833V3.33329C19.1667 2.41663 18.4167 1.66663 17.5 1.66663H2.49999C1.58333 1.66663 0.833328 2.41663 0.833328 3.33329V16.6666C0.833328 17.5833 1.58333 18.3333 2.49999 18.3333H9.16666V16.75ZM2.49999 3.33329H17.5V5.83329H2.49999V3.33329ZM17.5 10.9166C17.4167 10.9166 17.25 11 17.1667 11.0833L16.3333 11.9166L18.0833 13.6666L18.9167 12.8333C19.0833 12.6666 19.0833 12.3333 18.9167 12.1666L17.8333 11.0833C17.75 11 17.6667 10.9166 17.5 10.9166ZM15.9167 12.4166L10.8333 17.4166V19.1666H12.5833L17.6667 14.0833L15.9167 12.4166Z" fill="#949292"/>
</svg>
