<svg width="20" height="20" viewBox="0 0 20 20" fill="none" xmlns="http://www.w3.org/2000/svg">
<path d="M9.99999 12.9166C9.22644 12.9166 8.48457 12.6093 7.93759 12.0624C7.39061 11.5154 7.08332 10.7735 7.08332 9.99996C7.08332 9.22641 7.39061 8.48455 7.93759 7.93756C8.48457 7.39058 9.22644 7.08329 9.99999 7.08329C10.7735 7.08329 11.5154 7.39058 12.0624 7.93756C12.6094 8.48455 12.9167 9.22641 12.9167 9.99996C12.9167 10.7735 12.6094 11.5154 12.0624 12.0624C11.5154 12.6093 10.7735 12.9166 9.99999 12.9166ZM16.1917 10.8083C16.225 10.5416 16.25 10.275 16.25 9.99996C16.25 9.72496 16.225 9.44996 16.1917 9.16663L17.95 7.80829C18.1083 7.68329 18.15 7.45829 18.05 7.27496L16.3833 4.39163C16.2833 4.20829 16.0583 4.13329 15.875 4.20829L13.8 5.04163C13.3667 4.71663 12.9167 4.43329 12.3917 4.22496L12.0833 2.01663C12.05 1.81663 11.875 1.66663 11.6667 1.66663H8.33332C8.12499 1.66663 7.94999 1.81663 7.91665 2.01663L7.60832 4.22496C7.08332 4.43329 6.63332 4.71663 6.19999 5.04163L4.12499 4.20829C3.94165 4.13329 3.71666 4.20829 3.61666 4.39163L1.94999 7.27496C1.84165 7.45829 1.89165 7.68329 2.04999 7.80829L3.80832 9.16663C3.77499 9.44996 3.74999 9.72496 3.74999 9.99996C3.74999 10.275 3.77499 10.5416 3.80832 10.8083L2.04999 12.1916C1.89165 12.3166 1.84165 12.5416 1.94999 12.725L3.61666 15.6083C3.71666 15.7916 3.94165 15.8583 4.12499 15.7916L6.19999 14.95C6.63332 15.2833 7.08332 15.5666 7.60832 15.775L7.91665 17.9833C7.94999 18.1833 8.12499 18.3333 8.33332 18.3333H11.6667C11.875 18.3333 12.05 18.1833 12.0833 17.9833L12.3917 15.775C12.9167 15.5583 13.3667 15.2833 13.8 14.95L15.875 15.7916C16.0583 15.8583 16.2833 15.7916 16.3833 15.6083L18.05 12.725C18.15 12.5416 18.1083 12.3166 17.95 12.1916L16.1917 10.8083Z" fill="#949292"/>
</svg>
