<svg width="20" height="20" viewBox="0 0 20 20" fill="none" xmlns="http://www.w3.org/2000/svg">
<path d="M17.8334 6.25004C18.5 6.91671 18.5 8.00004 17.8334 8.58337L15.5 10.9167L9.00002 4.41671L11.3334 2.08337C12 1.41671 13.0834 1.41671 13.6667 2.08337L15.1667 3.58337L17.6667 1.08337L18.8334 2.25004L16.3334 4.75004L17.8334 6.25004ZM13 11.0834L11.8334 9.91671L9.50002 12.25L7.75002 10.5L10.0834 8.16671L8.91669 7.00004L6.58335 9.33337L5.33335 8.16671L3.00002 10.5C2.33335 11.1667 2.33335 12.25 3.00002 12.8334L4.50002 14.3334L1.16669 17.6667L2.33335 18.8334L5.66669 15.5L7.16669 17C7.83335 17.6667 8.91669 17.6667 9.50002 17L11.8334 14.6667L10.6667 13.5L13 11.0834Z" fill="#949292"/>
</svg>
