<svg width="20" height="20" viewBox="0 0 20 20" fill="none" xmlns="http://www.w3.org/2000/svg">
<path d="M3.33335 1.66663H16.6667C17.1087 1.66663 17.5326 1.84222 17.8452 2.15478C18.1578 2.46734 18.3334 2.89127 18.3334 3.33329V13.3333C18.3334 13.7753 18.1578 14.1992 17.8452 14.5118C17.5326 14.8244 17.1087 15 16.6667 15H13.3334L10 18.3333L6.66669 15H3.33335C2.89133 15 2.4674 14.8244 2.15484 14.5118C1.84228 14.1992 1.66669 13.7753 1.66669 13.3333V3.33329C1.66669 2.89127 1.84228 2.46734 2.15484 2.15478C2.4674 1.84222 2.89133 1.66663 3.33335 1.66663ZM4.16669 4.16663V5.83329H15.8334V4.16663H4.16669ZM4.16669 7.49996V9.16663H12.5V7.49996H4.16669ZM4.16669 10.8333V12.5H14.1667V10.8333H4.16669Z" fill="#949292"/>
</svg>
